<svg width="48" height="49" fill="none" xmlns="http://www.w3.org/2000/svg"><circle cx="24" cy="24.455" r="24" fill="url(#paint0_linear)"/><g clip-path="url(#clip0)" fill="#15174C"><path d="M24.92 10.72c-5.024 0-9.408 2.816-11.68 6.944h.256c.928 0 1.856.32 2.592.928 1.824-2.976 5.088-4.96 8.832-4.96 5.728 0 10.368 4.64 10.368 10.368 0 5.728-4.672 10.368-10.368 10.368-2.176 0-4.192-.672-5.888-1.824l-1.376 2.56a13.355 13.355 0 007.264 2.144c7.328 0 13.28-5.952 13.28-13.28 0-7.296-5.952-13.248-13.28-13.248z"/><path d="M24.92 16.576c-.8 0-1.44.64-1.44 1.44V24c0 .8.64 1.44 1.44 1.44h4.768c.8 0 1.44-.64 1.44-1.44 0-.8-.64-1.44-1.44-1.44H26.36v-4.544c0-.8-.64-1.44-1.44-1.44zm-7.808 9.696l-2.048.32a.405.405 0 01-.448-.384v-4.512c0-1.152-1.568-1.568-2.112-.544L7.928 29.76c-.448.8.256 1.76 1.152 1.632l2.048-.32a.405.405 0 01.448.384v4.512c0 1.152 1.568 1.568 2.112.544l4.608-8.608c.416-.832-.256-1.792-1.184-1.632z"/></g><defs><linearGradient id="paint0_linear" x1="-1.152" y1="48.455" x2="28.924" y2="47.425" gradientUnits="userSpaceOnUse"><stop stop-color="#D0AC6E"/><stop offset=".464" stop-color="#FEE5A5"/><stop offset="1" stop-color="#E2C383"/></linearGradient><clipPath id="clip0"><path fill="#fff" transform="translate(7 8)" d="M0 0h32v32H0z"/></clipPath></defs></svg>