<svg width="48" height="49" fill="none" xmlns="http://www.w3.org/2000/svg"><circle cx="24" cy="24.455" r="24" fill="url(#paint0_linear)"/><path d="M30.82 12.488l-.018-.051-.056-.169-.157.084-1.203.645-.13.07.068.131c.25.478.527.709.788.926l.001.001h0l.005.004c.136.105.243.196.32.345.08.15.137.377.137.76a.96.96 0 01-.203.593.632.632 0 01-.373.225l-.449.043-.1.01-.03.096-.128.43s0 0 0 0c-.278.92-.64 1.964-1.109 2.943h0c-.447.935-.993 1.75-1.676 2.289h-.001c-.19.152-.402.232-.65.294-.285.06-.616.082-.975.082a4.86 4.86 0 01-.999-.083 1.617 1.617 0 01-.67-.314h0c-.683-.54-1.23-1.354-1.676-2.29h0c-.468-.978-.831-2.023-1.11-2.922 0 0 0 0 0 0l-.128-.429-.029-.097-.1-.01-.45-.042a.634.634 0 01-.375-.228h0a.875.875 0 01-.2-.59c0-.041.016-.103.059-.186.042-.082.105-.176.188-.278h0l.002-.004a2.89 2.89 0 01.854-.753l.136-.074-.078-.134-.687-1.181-.072-.125-.128.067c-.429.226-.96.67-1.358 1.18h0l-.002.002c-.332.442-.589.968-.589 1.508 0 .638.228 1.207.57 1.64h0c.257.322.577.566.942.71.276.865.616 1.813 1.06 2.721h0c.542 1.107 1.241 2.137 2.145 2.865.41.341.862.52 1.327.631.448.112.892.134 1.368.134.476 0 .918-.022 1.341-.111h.004c.466-.112.916-.29 1.325-.608.928-.708 1.628-1.762 2.17-2.867h0c.444-.91.784-1.879 1.06-2.745a2.26 2.26 0 00.92-.709c.342-.433.57-1.023.57-1.618 0-.737-.126-1.226-.33-1.59-.201-.36-.47-.583-.724-.794l-.008-.008-.003-.002c-.17-.148-.295-.258-.387-.417z" fill="#131547" stroke="#131547" stroke-width=".3"/><path d="M18.777 14.015v-.001c.15.107.341.168.554.145 1.334-.11 2.54-.547 3.51-1.251a5.11 5.11 0 001.248-1.218c.398.522.886.97 1.464 1.33 1.056.681 2.373 1.075 3.797 1.075h.003c.189 0 .386 0 .585-.021.199 0 .398-.023.596-.066a.759.759 0 00.6-.396c.788-1.335.935-2.418.48-3.464-.405-.968-1.299-1.74-2.546-2.58l-.038-.025h-.004a.175.175 0 00-.03-.012c-1.38-.783-2.888-.977-4.302-.825-1.79.175-3.447.895-4.645 1.7h0l-.001.002c-.325.223-.672.332-.985.276h0-.006c-.276-.037-.589-.205-.917-.574a.836.836 0 00-1.466.55v.001c.011 1.997.275 3.178.65 3.928.378.757.864 1.06 1.267 1.31l.004.004c.06.04.13.086.182.112zm.717-1.513c-.206-.124-.418-.259-.606-.586-.179-.312-.34-.807-.431-1.646.126.038.257.07.389.086.775.113 1.498-.117 2.142-.54h.002c1.015-.677 2.41-1.289 3.884-1.436h.003c1.09-.126 2.236.02 3.299.602.5.34.92.651 1.247.951.328.302.552.585.669.869h0v.002c.185.423.148.916-.2 1.615l-.048.001h-.01l-.011.002c-.138.02-.278.02-.452.02a5.446 5.446 0 01-2.906-.815c-.79-.499-1.345-1.202-1.591-1.98a.852.852 0 00-1.044-.551.846.846 0 00-.575.574h0l-.002.007c-.183.733-.675 1.413-1.38 1.911h0l-.003.003c-.631.468-1.466.799-2.368.91 0 0 0 0 0 0l-.005-.003.004.003-.007.001zm-5.751 18.716l.059-.193c.501-1.656 1.74-3.703 3.142-4.842 1.418-1.156 3.225-1.983 5.247-2.33l.004-.001h0l.43-.065.09-.014.054.076.258.365.002.004h0c.119.177.258.318.425.464h0c.342.302.763.482 1.204.522.43.04.91-.096 1.405-.425a3.78 3.78 0 00.68-.617v-.002h0l.258-.3.055-.065.084.014.387.064h0v0c2.001.349 3.808 1.175 5.245 2.308l.002.001c1.38 1.117 2.684 3.184 3.207 4.841l.062.195h-.207 0-.019 0-.007 0-.007 0-.007 0-.007 0-.007 0-.007 0-.007 0-.024 0-.017 0-.017 0-.01 0-.06 0-.023 0-.023 0-.013 0-.065 0-.013 0-.042 0-.055 0-.013 0-.013 0-.013 0-.036 0-.023 0-.01 0-.06 0-.01 0-.017 0-.024 0-.063 0-.007 0-.017 0-.019 0-.018 0-.018 0-.018 0-.017 0-.019 0-.018 0-.018 0-.018 0-.017 0-.019 0-.018 0-.018 0-.018 0-.017 0-.019 0-.007 0-.011 0-.007 0-.011 0-.007 0-.011 0-.007 0-.01 0-.007 0-.012 0-.007 0-.011 0-.007 0-.011 0-.007 0-.011 0-.007 0-.01 0-.007 0-.012 0-.007 0-.011 0-.007 0-.011 0-.007 0-.011 0-.007 0-.01 0-.007 0-.012 0-.007 0-.011 0-.007 0-.011 0-.007 0-.011 0-.007 0-.01 0-.007 0-.012 0-.007 0-.011 0-.007 0-.011 0-.007 0-.113l-.037-.095c-.51-1.294-1.506-2.838-2.534-3.677-1.1-.893-2.49-1.563-4.046-1.887a4.28 4.28 0 01-.674.543c-.8.554-1.67.779-2.48.712a3.718 3.718 0 01-2.171-.919l-.007-.005h0l-.193-.194-.136-.135c-1.536.344-2.904.993-4.004 1.886h0c-1.047.837-2 2.38-2.489 3.674l-.037.097h-.472 0-.063 0-.044 0-.035 0-.029 0-.013 0-.013 0-.023 0-.05 0-.017 0-.017 0-.007 0-.056 0-.007 0-.899zm0 0h.202m-.202 0h.202m0 0h.002m-.002 0h.002m0 0h.001m-.001 0h.001m0 0h.002m-.002 0h.002m0 0h0m0 0h0m0 0h.002m-.001 0h.001m0 0h.002m-.002 0h.002m0 0h.001m-.001 0h.001m0 0h.001m-.001 0h.001m0 0h.002m-.002 0h.002m0 0h.001m-.001 0h.001m0 0h.002m-.002 0h.002m0 0h0m0 0h0m0 0h.002m-.001 0h.001m0 0h.002m-.002 0h.002m0 0h.001m-.001 0h.001m0 0h.001m-.001 0h.001m0 0h.002m-.002 0h.002m0 0h.001m-.001 0h.001m0 0h.002m-.002 0h.002m0 0h0m0 0h0m0 0h.002m-.001 0h.001m0 0h.002m-.002 0h.002m0 0h.001m-.001 0h.001m0 0h.001m-.001 0h.001m0 0h.002m-.002 0h.002m0 0h.001m-.001 0h.001m0 0h.002m-.002 0h.002m0 0h0m0 0h0m0 0h.002m-.001 0h.001m0 0h.002m-.002 0h.002m0 0h.001m-.001 0h.001m0 0h.001m-.001 0h.001m0 0h.002m-.002 0h.002m0 0h.001m-.001 0h.001m0 0h.001m0 0h0m0 0h.002m-.002 0h.002m0 0h.001m-.001 0h.001m0 0h.002m-.002 0h.002m0 0h.001m-.001 0h.001m0 0H14m-.001 0H14m0 0h.002m-.002 0h.002m0 0h.001m-.001 0h.001m0 0h.001m0 0h0m0 0h.002m-.002 0h.002m0 0h.001m-.001 0h.001m0 0h.002m-.002 0h.002m0 0h0m0 0h0m0 0h.002m-.001 0h.001m0 0h.002m-.002 0h.002m0 0h.001m-.001 0h.001m0 0h.001m-.001 0h.001m0 0h.002m-.002 0h.002m0 0h.001m-.001 0h.001m0 0h.001m0 0h0m0 0h.002m-.002 0h.002m0 0h.001m-.001 0h.001m0 0h.002m-.002 0h.002m0 0h0m0 0h0m0 0h.002m-.001 0h.001m0 0h.002m-.002 0h.002m0 0h0m0 0h0m0 0h.002m-.001 0h.001m0 0h.002m-.002 0h.002m0 0h.001m-.001 0h.001m0 0h.001m-.001 0h.001m0 0h.002m-.002 0h.002m0 0h.001m-.001 0h.001m0 0h.001m0 0h0m0 0h.002m-.002 0h.002m0 0h.001m-.001 0h.001m0 0h.002m-.002 0h.002m0 0h0m0 0h0m0 0h.002m-.001 0h.001m0 0h.002m-.002 0h.002m0 0h0m0 0h0m0 0h.002m-.001 0h.001m0 0h.002m-.002 0h.002m0 0h.001m-.001 0h.001m0 0h.001m-.001 0h.001m0 0h.002m-.002 0h.002m0 0h.001m-.001 0h.001m0 0h.001m-.001 0h.001m0 0h.002m-.002 0h.002m0 0h.001m-.001 0h.001m0 0h.001m0 0h0m0 0h.002m-.002 0h.002m0 0h.001m-.001 0h.001m0 0h.002m-.002 0h.002m0 0h0m0 0h0m0 0h.002m-.001 0h.001m0 0h.002m-.002 0h.002m0 0h0m0 0h0m0 0h.002m-.001 0h.001m0 0h.002m-.002 0h.002m0 0h0m0 0h0m0 0h.002m-.001 0h.001m0 0h.002m-.002 0h.002m0 0h.001m-.001 0h.001m0 0h.001m-.001 0h.001m0 0h.002m-.002 0h.002m0 0h.001m-.001 0h.001m0 0h.001m-.001 0h.001m0 0h.002m-.002 0h.002m0 0h.001m-.001 0h.001m0 0h.001m-.001 0h.001m0 0h.002m-.002 0h.002m0 0h.001m-.001 0h.001m0 0h.001m0 0h0m0 0h.002m-.002 0h.002m0 0h.001m-.001 0h.001m0 0h.001m0 0h0m0 0h.002m-.002 0h.002m0 0h.001m-.001 0h.001m0 0h.002m-.002 0h.002m0 0h0m0 0h0m0 0h.002m-.001 0h.001m0 0h.002m-.002 0h.002m0 0h0m0 0h0m0 0h.002m-.001 0h.001m0 0h.002m-.002 0h.002m0 0h0m0 0h0m0 0h.002m-.001 0h.001m0 0h.002m-.002 0h.002m0 0h0m0 0h0m0 0h.002m-.001 0h.001m0 0h.002m-.002 0h.002m0 0h0m0 0h0m0 0h.002m-.001 0h.001m0 0h.002m-.002 0h.002m0 0h0m0 0h0m0 0h.002m-.001 0h.001m0 0h.002m-.002 0h.002m0 0h0m0 0h0m0 0h.002m-.001 0h.001m0 0h.002m-.002 0h.002m0 0h0m0 0h0m0 0h.002m-.001 0h.001m0 0h.002m-.002 0h.002m0 0h0m0 0h0m0 0h.002m-.001 0h.001m0 0h.002m-.002 0h.002m0 0h0m0 0h0m0 0h.002m-.001 0h.001m0 0h.002m-.002 0h.002m0 0h0m0 0h0m0 0h.002m-.001 0h.001m0 0h.002m-.002 0h.002m0 0h0m0 0h0m0 0h.002m-.001 0h.001m0 0h.002m-.002 0h.002m0 0h0m0 0h0m0 0h.002m-.001 0h.001m0 0h.002m-.002 0h.002m0 0h0m0 0h0m0 0h.002m-.001 0h.001m0 0h.002m-.002 0h.002m0 0h0m0 0h0m0 0h.002m-.001 0h.001m0 0h.002m-.002 0h.002m0 0h0m0 0h0m0 0h.002m-.001 0h.001m0 0h.002m-.002 0h.002m0 0h0m0 0h0m0 0h.002m-.001 0h.001m0 0h.002m-.002 0h.002m0 0h0m0 0h0m0 0h.002m-.001 0h.001m0 0h.002m-.002 0h.002m0 0h0m0 0h0m0 0h.002m-.001 0h.001m0 0h.002m-.002 0h.002m0 0h0m0 0h0m0 0h.002m-.001 0h.001m0 0h.002m-.002 0h.002m0 0h0m0 0h0m0 0h.002m-.001 0h.001m0 0h.002m-.002 0h.002m0 0h0m0 0h0m0 0h.002m-.001 0h.001m0 0h.002m-.002 0h.002m0 0h0m0 0h0m0 0h.002m-.001 0h.001m0 0h.001m0 0h0m0 0h.002m-.002 0h.002m0 0h.001m-.001 0h.001m0 0h.001m0 0h0m0 0h.002m-.002 0h.002m0 0h.001m-.001 0h.001m0 0h.001m0 0h0m0 0h.002m-.002 0h.002m0 0h.001m-.001 0h.001m0 0h.001m0 0h0m0 0h.002m-.002 0h.002m0 0h.001m-.001 0h.001m0 0h.001m-.001 0h.001m0 0h.002m-.002 0h.002m0 0h.001m-.001 0h.001m0 0h.001m-.001 0h.001m0 0h.002m-.002 0h.002m0 0h.001m-.001 0h.001m0 0h.001m-.001 0h.001m0 0h.002m-.002 0h.002m0 0h.001m-.001 0h.001m0 0h.001m-.001 0h.001m0 0h.002m-.002 0h.002m0 0h0m0 0h0m0 0h.002m-.001 0h.001m0 0h.002m-.002 0h.002m0 0h0m0 0h0m0 0h.002m-.001 0h.001m0 0h.002m-.002 0h.002m0 0h0m0 0h0m0 0h.002m-.001 0h.001m0 0h.002m-.002 0h.002m0 0h0m0 0h0m0 0h.002m-.001 0h.001m0 0h.002m-.002 0h.002m0 0h0m0 0h0m0 0h.002m-.001 0h.001m0 0h.002m-.002 0h.002m0 0h0m0 0h0m0 0h.002m-.001 0h.001m0 0h.001m0 0h0m0 0h.002m-.002 0h.002m0 0h.001m-.001 0h.001m0 0h.001m0 0h0m0 0h.002m-.002 0h.002m0 0h.001m-.001 0h.001m0 0h.001m-.001 0h.001m0 0h.002m-.002 0h.002m0 0h.001m-.001 0h.001m0 0h.001m-.001 0h.001m0 0h.002m-.002 0h.002m0 0h.001m-.001 0h.001m0 0h.001m-.001 0h.001m0 0h.002m-.002 0h.002m0 0h0m0 0h0m0 0h.002m-.001 0h.001m0 0h.002m-.002 0h.002m0 0h0m0 0h0m0 0h.002m-.001 0h.001m0 0h.002m-.002 0h.002m0 0h0m0 0h0m0 0h.002m-.001 0h.001m0 0h.002m-.002 0h.002m0 0h0m0 0h0m0 0h.002m-.001 0h.001m0 0h.002m-.002 0h.002m0 0h0m0 0h0m0 0h.002m-.001 0h.001m0 0h.002m-.002 0h.002m0 0h0m0 0h0m0 0h.002m-.001 0h.001m0 0h.001m0 0h0m0 0h.002m-.002 0h.002m0 0h.001m-.001 0h.001m0 0h.001m0 0h0m0 0h.002m-.002 0h.002m0 0h.001m-.001 0h.001m0 0h.001m-.001 0h.001m0 0h.002m-.002 0h.002m0 0h.001m-.001 0h.001m0 0h.001m-.001 0h.001m0 0h.002m-.002 0h.002m0 0h.001m-.001 0h.001m0 0h.001m-.001 0h.001m0 0h.002m-.002 0h.002m0 0h0m0 0h0m0 0h.002m-.001 0h.001m0 0h.002m-.002 0h.002m0 0h0m0 0h0m0 0h.002m-.001 0h.001m0 0h.002m-.002 0h.002m0 0h0m0 0h0m0 0h.002m-.001 0h.001m0 0h.002m-.002 0h.002m0 0h0m0 0h0m0 0h.002m-.001 0h.001m0 0h.002m-.002 0h.002m0 0h0m0 0h0m0 0h.002m-.001 0h.001m0 0h.001m0 0h0m0 0h.002m-.002 0h.002m0 0h.001m-.001 0h.001m0 0h.001m0 0h0m0 0h.002m-.002 0h.002m0 0h.001m-.001 0h.001m0 0h.001m-.001 0h.001m0 0h.002m-.002 0h.002m0 0h.001m-.001 0h.001m0 0h.001m-.001 0h.001m0 0h.002m-.002 0h.002m0 0h.001m-.001 0h.001m0 0h.001m-.001 0h.001m0 0h.002m-.002 0h.002m0 0h.001m-.001 0h.001m0 0h.001m-.001 0h.001m0 0h.002m-.002 0h.002m0 0h0m0 0h0m0 0h.002m-.001 0h.001m0 0h.002m-.002 0h.002m0 0h0m0 0h0m0 0h.002m-.001 0h.001m0 0h.001m0 0h0m0 0h.002m-.002 0h.002m0 0h.001m-.001 0h.001m0 0h.002m-.002 0h.002m0 0h0m0 0h0m0 0h.002m-.001 0h.001m0 0h.002m-.002 0h.002m0 0h0m0 0h0m0 0h.002m-.001 0h.001m0 0h.002m-.002 0h.002m0 0h0m0 0h0m0 0h.002m-.001 0h.001m0 0h.001m0 0h0m0 0h.002m-.002 0h.002m0 0h.001m-.001 0h.001m0 0h.001m0 0h0m0 0h.002m-.002 0h.002m0 0h.001m-.001 0h.001m0 0h.001m0 0h0m0 0h.002m-.002 0h.002m0 0h.001m-.001 0h.001m0 0h.001m-.001 0h.001m0 0h.002m-.002 0h.002m0 0h.001m-.001 0h.001m0 0h.001m-.001 0h.001m0 0h.002m-.002 0h.002m0 0h.001m-.001 0h.001m0 0h.001m-.001 0h.001m0 0h.002m-.002 0h.002m0 0h.001m-.001 0h.001m0 0h.001m-.001 0h.001m0 0h.002m-.002 0h.002m0 0h.001m-.001 0h.001m0 0h.001m-.001 0h.001m0 0h.002m-.002 0h.002m0 0h.001m-.001 0h.001m0 0h.001m-.001 0h.001m0 0h.002m-.002 0h.002m0 0h0m0 0h0m0 0h.002m-.001 0h.001m0 0h.002m-.002 0h.002m0 0h0m0 0h0m0 0h.002m-.001 0h.001m0 0h.002m-.002 0h.002m0 0h0m0 0h0m0 0h.002m-.001 0h.001m0 0h.002m-.002 0h.002m0 0h0m0 0h0m0 0h.002m-.001 0h.001m0 0h.002m-.002 0h.002m0 0h0m0 0h0m0 0h.002m-.001 0h.001m0 0h.002-.002zm.196 2.064l-.005.02c-.723 0-1.464-.018-2.17-.038v1.263c0 .385-.088.71-.191.983 2.066.148 4.254.345 6.283.805 2.311.518 4.447 1.386 6.022 2.916m-9.939-5.95l9.835 6.059m-9.835-6.058h.023c1.913.032 3.802.063 5.454.451 1.667.392 3.077 1.143 4.016 2.614a.82.82 0 001.156.26h0l.007-.005.01-.008a.806.806 0 00.244-.251c.94-1.457 2.348-2.208 4.014-2.599 1.672-.393 3.588-.42 5.525-.442l-20.449-.02zm9.939 5.95s0 0 0 0l-.104.108m.104-.109h-.001l-.103.109m.104-.109l.032.03c.079.075.143.136.206.184a.39.39 0 00.169.088c.082.015.215-.014.478-.277m-.989.084l.033.03c.344.326.542.512 1.063-.009m-.107-.105s0 0 0 0l.107.105m-.107-.105c1.574-1.596 3.623-2.486 5.831-2.984m-5.83 2.984s0 0 0 0l.106.105m0 0l5.724-3.09m0 0s0 0 0 0l.034.147-.035-.146h.001zm-20.505-3.828v.063l.021.021v2c0 .115-.03.24-.079.373a4.26 4.26 0 01-.164.38l-.006.011c-.123.247-.245.49-.245.783 0 .313.076.59.303.783.22.187.552.269 1.002.27 2.17.15 4.477.322 6.589.812h0c2.063.468 3.915 1.228 5.24 2.48a.666.666 0 00.211.217c.098.067.218.125.35.174.265.098.597.166.937.189.34.022.696-.001 1.01-.092.308-.089.588-.247.76-.506 1.303-1.34 3.05-2.08 5.008-2.526 1.98-.443 4.192-.594 6.36-.743l.079-.005c.44-.001.772-.083.993-.27.23-.191.312-.468.312-.783 0-.293-.122-.536-.245-.783l-.006-.012-.042-.092c-.102-.218-.201-.432-.201-.66V32.38v0-.001 0-.001 0-.001 0-.001 0-.001 0-.001 0-.001 0-.001 0-.001 0-.001 0-.001 0-.001 0-.001 0-.001 0-.001 0-.001 0-.001 0-.001 0-.001 0-.001 0-.001 0-.001 0-.001 0-.001 0-.001 0-.001 0-.001 0-.001 0-.001 0-.001 0-.001 0-.001 0-.001 0-.001 0-.001 0-.001 0-.001 0-.001 0-.001 0-.001 0-.001 0-.001 0-.001h0v-.008a.83.83 0 00-.89-.786h0a46.75 46.75 0 01-2.232.072l-.748.013h-.007c-1.949.022-3.911.043-5.69.423-1.732.369-3.301 1.078-4.527 2.463-1.215-1.375-2.784-2.084-4.518-2.455-1.784-.383-3.755-.41-5.707-.43v0h-.001c-1.008 0-1.993-.022-2.977-.086h0-.001a.83.83 0 00-.889.786h0v.114zm26.848 3.204l.029-.002a4.952 4.952 0 01-.06-.147l-.157.011.058.147.13-.01zm-.23-2.388v-.15l-.15.005v.15l.15-.005zm-25.35 2.386l.157.01-.098-.157-.06.147z" fill="#131547" stroke="#131547" stroke-width=".3"/><defs><linearGradient id="paint0_linear" x1="-1.152" y1="48.455" x2="28.924" y2="47.425" gradientUnits="userSpaceOnUse"><stop stop-color="#D0AC6E"/><stop offset=".464" stop-color="#FEE5A5"/><stop offset="1" stop-color="#E2C383"/></linearGradient></defs></svg>