<svg width="48" height="49" fill="none" xmlns="http://www.w3.org/2000/svg"><circle cx="24" cy="24.455" r="24" fill="url(#paint0_linear)"/><path fill-rule="evenodd" clip-rule="evenodd" d="M35.768 12.171a1.171 1.171 0 01.995.763c.047.131.065.262.07.4V32a1.326 1.326 0 01-.07.399c-.117.322-.375.58-.697.698-.13.046-.262.064-.4.07h-8.98l-6.705 4.47-.086.053a1.278 1.278 0 01-.48.141c-.478.033-.94-.24-1.14-.677a1.257 1.257 0 01-.108-.487v-3.5h-5.834l-.101-.005a1.276 1.276 0 01-.392-.105 1.178 1.178 0 01-.634-.755c-.026-.1-.035-.2-.04-.302V13.333c.007-.137.024-.268.07-.399.119-.322.376-.58.698-.697.131-.047.262-.065.4-.07 7.811 0 15.702.003 23.434.004zM13.5 14.5v16.333h5.833c.138.006.269.024.4.07.321.118.58.376.697.698.047.13.064.261.07.399v2.486l5.186-3.457.084-.051c.089-.044.176-.083.273-.107.096-.026.191-.033.29-.038H34.5V14.5h-21zm13.99 3.463c-.004-.397-.004-.794.011-1.19a1.176 1.176 0 011.045-1.101 1.25 1.25 0 01.532.069 1.176 1.176 0 01.755 1.062c.005.387.012.773.013 1.16.792.007 1.585.02 2.377.038a1.158 1.158 0 011.107 1.081c.033.438-.193.867-.572 1.09a1.216 1.216 0 01-.535.16l-.106.002a13.023 13.023 0 01-.145 1.129 12.996 12.996 0 01-1.306 3.87c.342.207.697.397 1.059.565.182.084.366.164.553.235.105.04.212.077.318.115.048.02.048.02.095.042.184.098.341.234.456.41a1.17 1.17 0 01-.369 1.626c-.234.146-.52.203-.792.16-.147-.023-.287-.078-.426-.13a11.686 11.686 0 01-1.64-.761c-.181-.1-.36-.206-.537-.314a10.652 10.652 0 01-2.403 2.191c-.056.035-.056.034-.113.065a1.218 1.218 0 01-.503.13 1.184 1.184 0 01-.785-.277 1.178 1.178 0 01-.334-1.309c.08-.207.216-.377.388-.514.125-.088.251-.17.375-.26a8.37 8.37 0 001.493-1.411 10.54 10.54 0 01-1.59-1.707c-.18-.246-.348-.5-.496-.766-.09-.162-.182-.325-.221-.507a1.177 1.177 0 01.292-1.052c.083-.088.18-.161.285-.22a1.23 1.23 0 01.492-.142l.103-.002c.086.005.172.015.256.036.289.074.53.256.694.502.063.104.116.212.177.317.345.578.791 1.087 1.282 1.546.358-.744.627-1.533.802-2.338.085-.393.15-.792.192-1.192a147.92 147.92 0 01-4.658-.039 1.216 1.216 0 01-.536-.16 1.174 1.174 0 01-.5-1.42 1.165 1.165 0 011.036-.75c.792-.02 1.585-.032 2.379-.04zM19.303 18h.075l.016.001h.016c.103.01.202.027.3.06a1.029 1.029 0 01.138.058 1.164 1.164 0 01.532.532c1.246 2.71 2.35 5.481 3.526 8.222.075.191.11.392.086.597a1.176 1.176 0 01-1.052 1.024 1.176 1.176 0 01-.805-.227 1.223 1.223 0 01-.348-.42 97.178 97.178 0 01-.75-1.67c-1.144.015-2.287.015-3.431 0-.235.537-.47 1.075-.7 1.615-.087.187-.208.35-.374.475a1.175 1.175 0 01-1.731-.39 1.176 1.176 0 01-.126-.407 1.217 1.217 0 01.064-.54c1.103-2.771 2.347-5.483 3.522-8.224.034-.075.071-.146.12-.212a1.144 1.144 0 01.383-.347l.04-.02a1.273 1.273 0 01.392-.119l.016-.002.015-.002.076-.004zm.04 4.19a221.44 221.44 0 01-.701 1.621c.46-.002.921-.002 1.382 0l-.681-1.621z" fill="#131547"/><defs><linearGradient id="paint0_linear" x1="-1.152" y1="48.455" x2="28.924" y2="47.425" gradientUnits="userSpaceOnUse"><stop stop-color="#D0AC6E"/><stop offset=".464" stop-color="#FEE5A5"/><stop offset="1" stop-color="#E2C383"/></linearGradient></defs></svg>