<svg width="48" height="49" viewBox="0 0 48 49" fill="none" xmlns="http://www.w3.org/2000/svg">
<circle cx="24" cy="24.4547" r="24" fill="url(#paint0_linear)"/>
<g clip-path="url(#clip0)">
<path d="M24.92 10.72C19.896 10.72 15.512 13.536 13.24 17.664C13.336 17.664 13.4 17.664 13.496 17.664C14.424 17.664 15.352 17.984 16.088 18.592C17.912 15.616 21.176 13.632 24.92 13.632C30.648 13.632 35.288 18.272 35.288 24C35.288 29.728 30.616 34.368 24.92 34.368C22.744 34.368 20.728 33.696 19.032 32.544L17.656 35.104C19.736 36.448 22.232 37.248 24.92 37.248C32.248 37.248 38.2 31.296 38.2 23.968C38.2 16.672 32.248 10.72 24.92 10.72Z" fill="#15174C"/>
<path d="M24.92 16.576C24.12 16.576 23.48 17.216 23.48 18.016V24C23.48 24.8 24.12 25.44 24.92 25.44H29.688C30.488 25.44 31.128 24.8 31.128 24C31.128 23.2 30.488 22.56 29.688 22.56H26.36V18.016C26.36 17.216 25.72 16.576 24.92 16.576Z" fill="#15174C"/>
<path d="M17.1121 26.272L15.0641 26.592C14.8401 26.624 14.6161 26.432 14.6161 26.208V21.696C14.6161 20.544 13.0481 20.128 12.5041 21.152L7.92806 29.76C7.48006 30.56 8.18406 31.52 9.08006 31.392L11.1281 31.072C11.3521 31.04 11.5761 31.232 11.5761 31.456V35.968C11.5761 37.12 13.1441 37.536 13.6881 36.512L18.2961 27.904C18.7121 27.072 18.0401 26.112 17.1121 26.272Z" fill="#15174C"/>
</g>
<defs>
<linearGradient id="paint0_linear" x1="-1.15232" y1="48.4547" x2="28.9242" y2="47.4247" gradientUnits="userSpaceOnUse">
<stop stop-color="#D0AC6E"/>
<stop offset="0.463542" stop-color="#FEE5A5"/>
<stop offset="1" stop-color="#E2C383"/>
</linearGradient>
<clipPath id="clip0">
<rect width="32" height="32" fill="white" transform="translate(7 8)"/>
</clipPath>
</defs>
</svg>
