<svg width="48" height="49" viewBox="0 0 48 49" fill="none" xmlns="http://www.w3.org/2000/svg">
<circle cx="24" cy="24.4547" r="24" fill="url(#paint0_linear)"/>
<path d="M30.8194 12.4877L30.8025 12.4369L30.7462 12.2681L30.5893 12.3522L29.3862 12.9967L29.2552 13.0669L29.3242 13.1985C29.5744 13.6762 29.8509 13.9066 30.1116 14.1238L30.113 14.125L30.1129 14.1251L30.1175 14.1287C30.2544 14.234 30.3606 14.3248 30.4386 14.474C30.5173 14.6247 30.5746 14.8505 30.5746 15.2344C30.5746 15.4565 30.5013 15.6596 30.3721 15.8269C30.2615 15.9549 30.1231 16.0359 29.999 16.0521L29.5502 16.0948L29.4498 16.1044L29.4208 16.201L29.292 16.6304C29.2919 16.6305 29.2919 16.6306 29.2919 16.6307C29.0137 17.5506 28.6511 18.5953 28.183 19.574L28.183 19.5741C27.7365 20.5095 27.1901 21.3242 26.5068 21.8626L26.5059 21.8633C26.3159 22.0154 26.1042 22.0946 25.8567 22.1566C25.5714 22.2175 25.2404 22.2387 24.8809 22.2387C24.4989 22.2387 24.1676 22.2173 23.8822 22.1563C23.6224 22.0962 23.4076 21.9977 23.2128 21.8419L23.212 21.8412C22.5286 21.3028 21.9822 20.488 21.5358 19.5526L21.5357 19.5525C21.0677 18.5738 20.705 17.5292 20.4267 16.6301C20.4266 16.6299 20.4266 16.6297 20.4265 16.6295L20.298 16.201L20.269 16.1044L20.1685 16.0948L19.7197 16.0521C19.5948 16.0358 19.4554 15.9538 19.3444 15.8243L19.3444 15.8243L19.3434 15.8231C19.2201 15.6823 19.1441 15.4826 19.1441 15.2344C19.1441 15.1928 19.1597 15.1314 19.2027 15.0479C19.2449 14.9658 19.3082 14.8724 19.3906 14.7695L19.3906 14.7695L19.3934 14.7658C19.6385 14.4391 19.9871 14.1528 20.2469 14.0129L20.3834 13.9394L20.3054 13.8054L19.6179 12.6238L19.5456 12.4995L19.4184 12.5665C18.989 12.7925 18.4576 13.2369 18.0596 13.7454L18.0596 13.7454L18.0577 13.7479C17.7261 14.19 17.4691 14.7157 17.4691 15.2559C17.4691 15.8937 17.697 16.4631 18.0385 16.8957L18.0391 16.8964C18.2963 17.2179 18.6162 17.4616 18.9807 17.6052C19.2571 18.4706 19.5971 19.4187 20.041 20.3275L20.0411 20.3277C20.5833 21.4339 21.2824 22.4645 22.1862 23.1922C22.5955 23.533 23.0481 23.7126 23.5133 23.8235C23.9608 23.9352 24.4049 23.9566 24.8809 23.9566C25.357 23.9566 25.7989 23.9351 26.2223 23.846L26.2223 23.8461L26.2261 23.8451C26.6915 23.7343 27.1424 23.5552 27.5505 23.238C28.4791 22.5302 29.179 21.4756 29.7206 20.3707L29.7207 20.3705C30.1649 19.4611 30.505 18.4921 30.7811 17.6264C31.1482 17.4795 31.4666 17.2164 31.7018 16.917C32.0433 16.4844 32.2711 15.8936 32.2711 15.2988C32.2711 14.5621 32.1446 14.0728 31.9404 13.7082C31.7398 13.3499 31.4706 13.1256 31.2173 12.9145L31.2088 12.9074L31.206 12.905C31.0366 12.7568 30.9107 12.6466 30.8194 12.4877Z" fill="#131547" stroke="#131547" stroke-width="0.3"/>
<path d="M18.7767 14.015L18.7774 14.014C18.9273 14.1206 19.1185 14.1821 19.3307 14.1591C20.6646 14.0494 21.8716 13.6117 22.8402 12.9079C23.3322 12.5729 23.7534 12.1514 24.089 11.6896C24.4869 12.2118 24.9749 12.6606 25.5526 13.0193C26.609 13.7013 27.9262 14.0953 29.3496 14.0953H29.3534C29.5417 14.0953 29.7392 14.0953 29.938 14.0738C30.137 14.0732 30.3356 14.0511 30.5339 14.0077C30.7909 13.9794 31.0033 13.8459 31.134 13.6117C31.9216 12.2766 32.069 11.1942 31.6145 10.1481C31.209 9.18035 30.3154 8.40759 29.0681 7.56888L29.0301 7.54336H29.0257C29.0169 7.53855 29.0072 7.53418 28.9965 7.53065C27.6157 6.74778 26.1079 6.55407 24.6937 6.70625C22.9032 6.88109 21.2473 7.60074 20.0491 8.40679L20.0491 8.40679L20.0478 8.40764C19.7233 8.63074 19.3764 8.73958 19.0632 8.68431L19.0632 8.68418L19.0569 8.68335C18.7812 8.64658 18.4681 8.47876 18.1403 8.11028C17.9823 7.92658 17.7474 7.82266 17.5117 7.82266C17.0422 7.82266 16.6742 8.1906 16.6742 8.66016L16.6742 8.66097C16.685 10.658 16.9491 11.8395 17.3238 12.5891C17.7024 13.3461 18.188 13.6493 18.5907 13.8996L18.5954 13.9027C18.6546 13.9422 18.7252 13.9893 18.7767 14.015ZM19.4941 12.502C19.288 12.3782 19.0759 12.2433 18.8879 11.9156C18.7093 11.6042 18.5476 11.109 18.4566 10.2697C18.5826 10.3078 18.7137 10.3409 18.846 10.3558C19.6207 10.469 20.3439 10.2392 20.9885 9.81687L20.9885 9.81688L20.9895 9.81621C22.005 9.13916 23.3999 8.52716 24.8743 8.37972L24.8743 8.37974L24.8766 8.37948C25.9664 8.25373 27.1134 8.40036 28.1755 8.98157C28.6761 9.32261 29.0964 9.63332 29.4226 9.93339C29.7507 10.2352 29.9748 10.5185 30.0919 10.8015L30.0918 10.8015L30.0929 10.8039C30.277 11.2275 30.2397 11.7196 29.8915 12.4194C29.8768 12.4202 29.8611 12.4203 29.8437 12.4203H29.8331L29.8225 12.4218C29.6846 12.4415 29.5451 12.4418 29.3711 12.4418C28.2607 12.4418 27.2572 12.1275 26.4649 11.6271C25.6752 11.1283 25.1196 10.4254 24.8736 9.64642C24.7418 9.22511 24.2734 8.96639 23.8302 9.09591C23.5384 9.17607 23.332 9.4123 23.2548 9.66979L23.2546 9.66974L23.2529 9.67651C23.0695 10.4101 22.5781 11.0903 21.8725 11.5884L21.8725 11.5884L21.8696 11.5905C21.2388 12.0585 20.4037 12.3897 19.5024 12.501C19.5021 12.5008 19.5019 12.5007 19.5017 12.5006C19.4982 12.4989 19.4968 12.4981 19.4968 12.4981C19.4968 12.4981 19.4987 12.4992 19.5013 12.5011C19.4989 12.5014 19.4965 12.5017 19.4941 12.502Z" fill="#131547" stroke="#131547" stroke-width="0.3"/>
<path d="M13.7432 31.2184L13.8017 31.0249C14.303 29.3686 15.5423 27.3217 16.9444 26.1825C18.3619 25.0267 20.1693 24.2001 22.1914 23.8522L22.1945 23.8516L22.1945 23.8517L22.6242 23.7872L22.7157 23.7735L22.769 23.849L23.0268 24.2143L23.0291 24.2175L23.0291 24.2176C23.1476 24.3953 23.2871 24.5358 23.4542 24.682L23.4547 24.6824C23.7962 24.9838 24.2174 25.1641 24.6581 25.2041C25.0878 25.2432 25.5689 25.1078 26.0627 24.7792C26.2929 24.6116 26.539 24.4056 26.7422 24.1618L26.7435 24.1602L26.7435 24.1602L27.0013 23.8594L27.0564 23.7952L27.1399 23.8091L27.5266 23.8735L27.5277 23.8737V23.8737C29.5284 24.2217 31.3348 25.0482 32.7725 26.181L32.7741 26.1822C34.1535 27.299 35.4577 29.3663 35.9809 31.0232L36.0426 31.2184H35.8379H35.8365H35.8351H35.8337H35.8323H35.831H35.8296H35.8282H35.8268H35.8254H35.824H35.8226H35.8212H35.8198H35.8185H35.8171H35.8157H35.8143H35.8129H35.8115H35.8101H35.8087H35.8073H35.8059H35.8045H35.8031H35.8017H35.8003H35.7989H35.7975H35.7961H35.7947H35.7933H35.7919H35.7905H35.7891H35.7877H35.7863H35.7849H35.7835H35.7821H35.7807H35.7793H35.7779H35.7765H35.7751H35.7737H35.7723H35.7709H35.7695H35.7681H35.7667H35.7653H35.7639H35.7624H35.761H35.7596H35.7582H35.7568H35.7554H35.754H35.7526H35.7512H35.7498H35.7483H35.7469H35.7455H35.7441H35.7427H35.7413H35.7399H35.7384H35.737H35.7356H35.7342H35.7328H35.7314H35.73H35.7285H35.7271H35.7257H35.7243H35.7229H35.7214H35.72H35.7186H35.7172H35.7158H35.7143H35.7129H35.7115H35.7101H35.7087H35.7072H35.7058H35.7044H35.703H35.7015H35.7001H35.6987H35.6973H35.6959H35.6944H35.693H35.6916H35.6902H35.6887H35.6873H35.6859H35.6844H35.683H35.6816H35.6802H35.6787H35.6773H35.6759H35.6745H35.673H35.6716H35.6702H35.6687H35.6673H35.6659H35.6644H35.663H35.6616H35.6602H35.6587H35.6573H35.6559H35.6544H35.653H35.6516H35.6501H35.6487H35.6473H35.6458H35.6444H35.643H35.6415H35.6401H35.6387H35.6372H35.6358H35.6343H35.6329H35.6315H35.63H35.6286H35.6272H35.6257H35.6243H35.6229H35.6214H35.62H35.6185H35.6171H35.6157H35.6142H35.6128H35.6114H35.6099H35.6085H35.607H35.6056H35.6042H35.6027H35.6013H35.5998H35.5984H35.597H35.5955H35.5941H35.5926H35.5912H35.5897H35.5883H35.5869H35.5854H35.584H35.5825H35.5811H35.5797H35.5782H35.5768H35.5753H35.5739H35.5724H35.571H35.5696H35.5681H35.5667H35.5652H35.5638H35.5623H35.5609H35.5594H35.558H35.5566H35.5551H35.5537H35.5522H35.5508H35.5493H35.5479H35.5464H35.545H35.5436H35.5421H35.5407H35.5392H35.5378H35.5363H35.5349H35.5334H35.532H35.5305H35.5291H35.5277H35.5262H35.5248H35.5233H35.5219H35.5204H35.519H35.5175H35.5161H35.5146H35.5132H35.5117H35.5103H35.5088H35.5074H35.5059H35.5045H35.5031H35.5016H35.5002H35.4987H35.4973H35.4958H35.4944H35.4929H35.4915H35.49H35.4886H35.4871H35.4857H35.4842H35.4828H35.4813H35.4799H35.4784H35.477H35.4756H35.4741H35.4727H35.4712H35.4698H35.4683H35.4669H35.4654H35.464H35.4625H35.4611H35.4596H35.4582H35.4567H35.4553H35.4538H35.4524H35.4509H35.4495H35.448H35.4466H35.4452H35.4437H35.4423H35.4408H35.4394H35.4379H35.4365H35.435H35.4336H35.4321H35.4307H35.4292H35.4278H35.4263H35.4249H35.4234H35.422H35.4206H35.4191H35.4177H35.4162H35.4148H35.4133H35.4119H35.4104H35.409H35.4075H35.4061H35.4046H35.4032H35.4018H35.4003H35.3989H35.3974H35.396H35.3945H35.3931H35.3916H35.3902H35.3888H35.3873H35.3859H35.3844H35.383H35.3815H35.3801H35.3786H35.3772H35.3758H35.3743H35.3729H35.3714H35.37H35.3685H35.3671H35.3657H35.3642H35.3628H35.3613H35.3599H35.3584H35.357H35.3556H35.3541H35.3527H35.3512H35.3498H35.3484H35.3469H35.3455H35.344H35.3426H35.3412H35.3397H35.3383H35.3368H35.3354H35.334H35.3325H35.3311H35.3296H35.3282H35.3268H35.3253H35.3239H35.3225H35.321H35.3196H35.3181H35.3167H35.3153H35.3138H35.3124H35.311H35.3095H35.3081H35.3067H35.3052H35.3038H35.3024H35.3009H35.2995H35.2981H35.2966H35.2952H35.2938H35.2923H35.2909H35.2895H35.288H35.2866H35.2852H35.2837H35.2823H35.2809H35.2794H35.278H35.2766H35.2751H35.2737H35.2723H35.2709H35.2694H35.268H35.2666H35.2651H35.2637H35.2623H35.2609H35.2594H35.258H35.2566H35.2552H35.2537H35.2523H35.2509H35.2495H35.248H35.2466H35.2452H35.2438H35.2423H35.2409H35.2395H35.2381H35.2366H35.2352H35.2338H35.2324H35.231H35.2295H35.2281H35.2267H35.2253H35.2239H35.2224H35.221H35.2196H35.2182H35.2168H35.2154H35.2139H35.2125H35.2111H35.2097H35.2083H35.2069H35.2054H35.204H35.2026H35.2012H35.1998H35.1984H35.197H35.1956H35.1941H35.1927H35.1913H35.1899H35.1885H35.1871H35.1857H35.1843H35.1829H35.1815H35.18H35.1786H35.1772H35.1758H35.1744H35.173H35.1716H35.1702H35.1688H35.1674H35.166H35.1646H35.1632H35.1618H35.1604H35.159H35.1576H35.1562H35.1548H35.1534H35.152H35.1506H35.1492H35.1478H35.1464H35.145H35.1436H35.1422H35.1408H35.1394H35.138H35.1366H35.1352H35.1338H35.1324H35.131H35.1296H35.1282H35.1269H35.1255H35.1241H35.1227H35.1213H35.1199H35.1185H35.1171H35.1157H35.1144H35.113H35.1116H35.1102H35.1088H35.1074H35.106H35.1047H35.1033H35.1019H35.1005H35.0991H35.0977H35.0963H35.095H35.0936H35.0922H35.0908H35.0894H35.088H35.0867H35.0853H35.0839H35.0825H35.0811H35.0797H35.0783H35.077H35.0756H35.0742H35.0728H35.0714H35.07H35.0686H35.0673H35.0659H35.0645H35.0631H35.0617H35.0603H35.059H35.0576H35.0562H35.0548H35.0534H35.052H35.0506H35.0493H35.0479H35.0465H35.0451H35.0437H35.0423H35.041H35.0396H35.0382H35.0368H35.0354H35.034H35.0326H35.0313H35.0299H35.0285H35.0271H35.0257H35.0243H35.023H35.0216H35.0202H35.0188H35.0174H35.016H35.0146H35.0133H35.0119H35.0105H35.0091H35.0077H35.0063H35.005H35.0036H35.0022H35.0008H34.9994H34.998H34.9966H34.9953H34.9939H34.9925H34.9911H34.9897H34.9883H34.9869H34.9856H34.9842H34.9828H34.9814H34.98H34.9786H34.9773H34.9759H34.9745H34.9731H34.9717H34.9703H34.9689H34.9676H34.9662H34.9648H34.9634H34.962H34.9606H34.9593H34.9579H34.9565H34.9551H34.9537H34.9523H34.9509H34.9496H34.9482H34.9468H34.9454H34.944H34.9426H34.9413H34.9399H34.9385H34.9371H34.9357H34.9343H34.9329H34.9316H34.9302H34.9288H34.9274H34.926H34.9246H34.9233H34.9219H34.9205H34.9191H34.9177H34.9163H34.9149H34.9136H34.9122H34.9108H34.9094H34.908H34.9066H34.9053H34.9039H34.9025H34.9011H34.8997H34.8983H34.8969H34.8956H34.8942H34.8928H34.8914H34.89H34.8886H34.8872H34.8859H34.8845H34.8831H34.8817H34.8803H34.8789H34.8776H34.8762H34.8748H34.8734H34.872H34.8706H34.8692H34.8679H34.8665H34.8651H34.8637H34.8623H34.8609H34.8596H34.8582H34.8568H34.8554H34.854H34.8526H34.8512H34.8499H34.8485H34.8471H34.8457H34.8443H34.8429H34.8416H34.8402H34.8388H34.8374H34.836H34.8346H34.8332H34.8319H34.8305H34.8291H34.8277H34.8263H34.8249H34.8236H34.8222H34.8208H34.8194H34.818H34.8166H34.8152H34.8139H34.8125H34.8111H34.8097H34.8083H34.8069H34.8055H34.8042H34.8028H34.8014H34.8H34.7986H34.7972H34.7959H34.7945H34.7931H34.7917H34.7903H34.7889H34.7875H34.7862H34.7848H34.7834H34.782H34.7806H34.7792H34.7779H34.7765H34.7751H34.7737H34.7723H34.7709H34.7695H34.7682H34.7668H34.7654H34.764H34.7626H34.7612H34.7599H34.7585H34.7571H34.7557H34.7543H34.7529H34.7515H34.7502H34.7488H34.7474H34.746H34.7446H34.7432H34.7419H34.7405H34.7391H34.7377H34.7363H34.7349H34.7335H34.7322H34.7308H34.7294H34.728H34.7266H34.7252H34.7239H34.7225H34.7211H34.7197H34.7183H34.7169H34.7155H34.7142H34.7128H34.7114H34.71H34.7086H34.7072H34.7058H34.7045H34.7031H34.7017H34.7003H34.6989H34.6975H34.6962H34.6948H34.6934H34.692H34.6906H34.6892H34.6878H34.6865H34.6851H34.6837H34.6823H34.6809H34.6795H34.6782H34.6768H34.6754H34.674H34.6726H34.6712H34.6698H34.6685H34.6671H34.6657H34.6643H34.6629H34.6615H34.6602H34.6588H34.6574H34.656H34.6546H34.6532H34.6518H34.6505H34.6491H34.6477H34.6463H34.6449H34.6435H34.6422H34.6408H34.6394H34.638H34.6366H34.6352H34.6338H34.6325H34.6311H34.6297H34.6283H34.6269H34.6255H34.6241H34.6228H34.6214H34.62H34.6186H34.6172H34.6158H34.6145H34.6131H34.6117H34.6103H34.6089H34.6075H34.6061H34.6048H34.6034H34.602H34.6006H34.5992H34.5978H34.5965H34.5951H34.5937H34.5923H34.5909H34.5895H34.5881H34.5868H34.5854H34.584H34.5826H34.5812H34.5798H34.5785H34.5771H34.5757H34.5743H34.5729H34.5715H34.5701H34.5688H34.5674H34.566H34.5646H34.5632H34.5618H34.5605H34.5591H34.5577H34.5563H34.5549H34.5535H34.5521H34.5508H34.5494H34.548H34.5466H34.5452H34.5438H34.5424H34.5411H34.5397H34.5383H34.5369H34.5355H34.5341H34.5328H34.5314H34.53H34.5286H34.5272H34.5258H34.5244H34.5231H34.5217H34.5203H34.5189H34.5175H34.5161H34.5148H34.5134H34.512H34.5106H34.5092H34.5078H34.5064H34.5051H34.5037H34.5023H34.5009H34.4995H34.4981H34.4968H34.4954H34.494H34.4926H34.4912H34.4898H34.4884H34.4871H34.4857H34.4843H34.4829H34.4815H34.4801H34.4788H34.4774H34.476H34.4746H34.4732H34.4718H34.4704H34.4691H34.4677H34.4663H34.4649H34.4635H34.4621H34.4608H34.4594H34.458H34.4566H34.4552H34.4538H34.4524H34.4511H34.4497H34.4483H34.4469H34.4455H34.4441H34.4427H34.4414H34.44H34.4386H34.4372H34.4358H34.4344H34.4331H34.4317H34.4303H34.4289H34.4275H34.4261H34.4247H34.4234H34.422H34.4206H34.4192H34.4178H34.4164H34.4151H34.4137H34.4123H34.4109H34.4095H34.4081H34.4067H34.4054H34.404H34.4026H34.4012H34.3998H34.3984H34.2963L34.2589 31.1233C33.7497 29.8293 32.753 28.2851 31.7255 27.4463C30.6247 26.5533 29.2358 25.8834 27.6792 25.5594C27.4563 25.7759 27.2316 25.9569 27.005 26.1015C26.2055 26.6559 25.3343 26.881 24.5247 26.8135C23.7204 26.7465 22.959 26.4335 22.3535 25.8953L22.3469 25.8895L22.3471 25.8893L22.1537 25.6959L22.0184 25.5606C20.4819 25.9047 19.1142 26.5543 18.0144 27.4466L18.0136 27.4472L18.0136 27.4472C16.9671 28.2844 16.0133 29.8265 15.5251 31.1213L15.4885 31.2184H15.3848H15.3833H15.3817H15.3802H15.3787H15.3772H15.3757H15.3742H15.3727H15.3712H15.3697H15.3681H15.3666H15.3651H15.3636H15.3621H15.3606H15.3591H15.3576H15.3561H15.3546H15.353H15.3515H15.35H15.3485H15.347H15.3455H15.344H15.3425H15.341H15.3395H15.3379H15.3364H15.3349H15.3334H15.3319H15.3304H15.3289H15.3274H15.3259H15.3244H15.3228H15.3213H15.3198H15.3183H15.3168H15.3153H15.3138H15.3123H15.3108H15.3093H15.3077H15.3062H15.3047H15.3032H15.3017H15.3002H15.2987H15.2972H15.2957H15.2942H15.2927H15.2911H15.2896H15.2881H15.2866H15.2851H15.2836H15.2821H15.2806H15.2791H15.2776H15.2761H15.2746H15.273H15.2715H15.27H15.2685H15.267H15.2655H15.264H15.2625H15.261H15.2595H15.258H15.2565H15.255H15.2534H15.2519H15.2504H15.2489H15.2474H15.2459H15.2444H15.2429H15.2414H15.2399H15.2384H15.2369H15.2354H15.2339H15.2324H15.2309H15.2293H15.2278H15.2263H15.2248H15.2233H15.2218H15.2203H15.2188H15.2173H15.2158H15.2143H15.2128H15.2113H15.2098H15.2083H15.2068H15.2053H15.2038H15.2023H15.2008H15.1993H15.1978H15.1963H15.1947H15.1932H15.1917H15.1902H15.1887H15.1872H15.1857H15.1842H15.1827H15.1812H15.1797H15.1782H15.1767H15.1752H15.1737H15.1722H15.1707H15.1692H15.1677H15.1662H15.1647H15.1632H15.1617H15.1602H15.1587H15.1572H15.1557H15.1542H15.1527H15.1512H15.1497H15.1482H15.1467H15.1452H15.1437H15.1422H15.1407H15.1392H15.1377H15.1362H15.1347H15.1332H15.1317H15.1302H15.1287H15.1272H15.1258H15.1243H15.1228H15.1213H15.1198H15.1183H15.1168H15.1153H15.1138H15.1123H15.1108H15.1093H15.1078H15.1063H15.1048H15.1033H15.1018H15.1003H15.0988H15.0974H15.0959H15.0944H15.0929H15.0914H15.0899H15.0884H15.0869H15.0854H15.0839H15.0824H15.0809H15.0794H15.078H15.0765H15.075H15.0735H15.072H15.0705H15.069H15.0675H15.066H15.0646H15.0631H15.0616H15.0601H15.0586H15.0571H15.0556H15.0541H15.0526H15.0512H15.0497H15.0482H15.0467H15.0452H15.0437H15.0422H15.0408H15.0393H15.0378H15.0363H15.0348H15.0333H15.0318H15.0304H15.0289H15.0274H15.0259H15.0244H15.0229H15.0215H15.02H15.0185H15.017H15.0155H15.0141H15.0126H15.0111H15.0096H15.0081H15.0067H15.0052H15.0037H15.0022H15.0007H14.9993H14.9978H14.9963H14.9948H14.9933H14.9919H14.9904H14.9889H14.9874H14.986H14.9845H14.983H14.9815H14.98H14.9786H14.9771H14.9756H14.9741H14.9727H14.9712H14.9697H14.9683H14.9668H14.9653H14.9638H14.9624H14.9609H14.9594H14.9579H14.9565H14.955H14.9535H14.9521H14.9506H14.9491H14.9476H14.9462H14.9447H14.9432H14.9418H14.9403H14.9388H14.9374H14.9359H14.9344H14.933H14.9315H14.93H14.9286H14.9271H14.9256H14.9242H14.9227H14.9212H14.9198H14.9183H14.9168H14.9154H14.9139H14.9125H14.911H14.9095H14.9081H14.9066H14.9052H14.9037H14.9022H14.9008H14.8993H14.8978H14.8964H14.8949H14.8935H14.892H14.8906H14.8891H14.8876H14.8862H14.8847H14.8833H14.8818H14.8804H14.8789H14.8774H14.876H14.8745H14.8731H14.8716H14.8702H14.8687H14.8673H14.8658H14.8644H14.8629H14.8615H14.86H14.8586H14.8571H14.8557H14.8542H14.8528H14.8513H14.8499H14.8484H14.847H14.8455H14.8441H14.8426H14.8412H14.8397H14.8383H14.8368H14.8354H14.8339H14.8325H14.8311H14.8296H14.8282H14.8267H14.8253H14.8238H14.8224H14.821H14.8195H14.8181H14.8166H14.8152H14.8138H14.8123H14.8109H14.8094H14.808H14.8066H14.8051H14.8037H14.8022H14.8008H14.7994H14.7979H14.7965H14.7951H14.7936H14.7922H14.7908H14.7893H14.7879H14.7865H14.785H14.7836H14.7822H14.7807H14.7793H14.7779H14.7764H14.775H14.7736H14.7722H14.7707H14.7693H14.7679H14.7664H14.765H14.7636H14.7622H14.7607H14.7593H14.7579H14.7565H14.755H14.7536H14.7522H14.7508H14.7493H14.7479H14.7465H14.7451H14.7437H14.7422H14.7408H14.7394H14.738H14.7366H14.7351H14.7337H14.7323H14.7309H14.7295H14.7281H14.7266H14.7252H14.7238H14.7224H14.721H14.7196H14.7182H14.7167H14.7153H14.7139H14.7125H14.7111H14.7097H14.7083H14.7069H14.7055H14.7041H14.7026H14.7012H14.6998H14.6984H14.697H14.6956H14.6942H14.6928H14.6914H14.69H14.6886H14.6872H14.6858H14.6844H14.683H14.6816H14.6802H14.6788H14.6774H14.676H14.6746H14.6732H14.6718H14.6704H14.669H14.6676H14.6662H14.6648H14.6634H14.662H14.6606H14.6592H14.6578H14.6564H14.655H14.6536H14.6522H14.6509H14.6495H14.6481H14.6467H14.6453H14.6439H14.6425H14.6411H14.6397H14.6384H14.637H14.6356H14.6342H14.6328H13.7432ZM13.7432 31.2184H13.9453M13.7432 31.2184H13.9453M13.9453 31.2184H13.9467M13.9453 31.2184H13.9467M13.9467 31.2184H13.9481M13.9467 31.2184H13.9481M13.9481 31.2184H13.9495M13.9481 31.2184H13.9495M13.9495 31.2184H13.9508M13.9495 31.2184H13.9508M13.9508 31.2184H13.9522M13.9508 31.2184H13.9522M13.9522 31.2184H13.9536M13.9522 31.2184H13.9536M13.9536 31.2184H13.955M13.9536 31.2184H13.955M13.955 31.2184H13.9564M13.955 31.2184H13.9564M13.9564 31.2184H13.9578M13.9564 31.2184H13.9578M13.9578 31.2184H13.9591M13.9578 31.2184H13.9591M13.9591 31.2184H13.9605M13.9591 31.2184H13.9605M13.9605 31.2184H13.9619M13.9605 31.2184H13.9619M13.9619 31.2184H13.9633M13.9619 31.2184H13.9633M13.9633 31.2184H13.9647M13.9633 31.2184H13.9647M13.9647 31.2184H13.966M13.9647 31.2184H13.966M13.966 31.2184H13.9674M13.966 31.2184H13.9674M13.9674 31.2184H13.9688M13.9674 31.2184H13.9688M13.9688 31.2184H13.9702M13.9688 31.2184H13.9702M13.9702 31.2184H13.9715M13.9702 31.2184H13.9715M13.9715 31.2184H13.9729M13.9715 31.2184H13.9729M13.9729 31.2184H13.9743M13.9729 31.2184H13.9743M13.9743 31.2184H13.9757M13.9743 31.2184H13.9757M13.9757 31.2184H13.977M13.9757 31.2184H13.977M13.977 31.2184H13.9784M13.977 31.2184H13.9784M13.9784 31.2184H13.9798M13.9784 31.2184H13.9798M13.9798 31.2184H13.9812M13.9798 31.2184H13.9812M13.9812 31.2184H13.9825M13.9812 31.2184H13.9825M13.9825 31.2184H13.9839M13.9825 31.2184H13.9839M13.9839 31.2184H13.9853M13.9839 31.2184H13.9853M13.9853 31.2184H13.9866M13.9853 31.2184H13.9866M13.9866 31.2184H13.988M13.9866 31.2184H13.988M13.988 31.2184H13.9894M13.988 31.2184H13.9894M13.9894 31.2184H13.9908M13.9894 31.2184H13.9908M13.9908 31.2184H13.9921M13.9908 31.2184H13.9921M13.9921 31.2184H13.9935M13.9921 31.2184H13.9935M13.9935 31.2184H13.9949M13.9935 31.2184H13.9949M13.9949 31.2184H13.9962M13.9949 31.2184H13.9962M13.9962 31.2184H13.9976M13.9962 31.2184H13.9976M13.9976 31.2184H13.999M13.9976 31.2184H13.999M13.999 31.2184H14.0003M13.999 31.2184H14.0003M14.0003 31.2184H14.0017M14.0003 31.2184H14.0017M14.0017 31.2184H14.0031M14.0017 31.2184H14.0031M14.0031 31.2184H14.0044M14.0031 31.2184H14.0044M14.0044 31.2184H14.0058M14.0044 31.2184H14.0058M14.0058 31.2184H14.0072M14.0058 31.2184H14.0072M14.0072 31.2184H14.0085M14.0072 31.2184H14.0085M14.0085 31.2184H14.0099M14.0085 31.2184H14.0099M14.0099 31.2184H14.0112M14.0099 31.2184H14.0112M14.0112 31.2184H14.0126M14.0112 31.2184H14.0126M14.0126 31.2184H14.014M14.0126 31.2184H14.014M14.014 31.2184H14.0153M14.014 31.2184H14.0153M14.0153 31.2184H14.0167M14.0153 31.2184H14.0167M14.0167 31.2184H14.0181M14.0167 31.2184H14.0181M14.0181 31.2184H14.0194M14.0181 31.2184H14.0194M14.0194 31.2184H14.0208M14.0194 31.2184H14.0208M14.0208 31.2184H14.0221M14.0208 31.2184H14.0221M14.0221 31.2184H14.0235M14.0221 31.2184H14.0235M14.0235 31.2184H14.0249M14.0235 31.2184H14.0249M14.0249 31.2184H14.0262M14.0249 31.2184H14.0262M14.0262 31.2184H14.0276M14.0262 31.2184H14.0276M14.0276 31.2184H14.0289M14.0276 31.2184H14.0289M14.0289 31.2184H14.0303M14.0289 31.2184H14.0303M14.0303 31.2184H14.0317M14.0303 31.2184H14.0317M14.0317 31.2184H14.033M14.0317 31.2184H14.033M14.033 31.2184H14.0344M14.033 31.2184H14.0344M14.0344 31.2184H14.0357M14.0344 31.2184H14.0357M14.0357 31.2184H14.0371M14.0357 31.2184H14.0371M14.0371 31.2184H14.0384M14.0371 31.2184H14.0384M14.0384 31.2184H14.0398M14.0384 31.2184H14.0398M14.0398 31.2184H14.0411M14.0398 31.2184H14.0411M14.0411 31.2184H14.0425M14.0411 31.2184H14.0425M14.0425 31.2184H14.0439M14.0425 31.2184H14.0439M14.0439 31.2184H14.0452M14.0439 31.2184H14.0452M14.0452 31.2184H14.0466M14.0452 31.2184H14.0466M14.0466 31.2184H14.0479M14.0466 31.2184H14.0479M14.0479 31.2184H14.0493M14.0479 31.2184H14.0493M14.0493 31.2184H14.0506M14.0493 31.2184H14.0506M14.0506 31.2184H14.052M14.0506 31.2184H14.052M14.052 31.2184H14.0533M14.052 31.2184H14.0533M14.0533 31.2184H14.0547M14.0533 31.2184H14.0547M14.0547 31.2184H14.056M14.0547 31.2184H14.056M14.056 31.2184H14.0574M14.056 31.2184H14.0574M14.0574 31.2184H14.0587M14.0574 31.2184H14.0587M14.0587 31.2184H14.0601M14.0587 31.2184H14.0601M14.0601 31.2184H14.0614M14.0601 31.2184H14.0614M14.0614 31.2184H14.0628M14.0614 31.2184H14.0628M14.0628 31.2184H14.0641M14.0628 31.2184H14.0641M14.0641 31.2184H14.0655M14.0641 31.2184H14.0655M14.0655 31.2184H14.0668M14.0655 31.2184H14.0668M14.0668 31.2184H14.0682M14.0668 31.2184H14.0682M14.0682 31.2184H14.0695M14.0682 31.2184H14.0695M14.0695 31.2184H14.0709M14.0695 31.2184H14.0709M14.0709 31.2184H14.0722M14.0709 31.2184H14.0722M14.0722 31.2184H14.0736M14.0722 31.2184H14.0736M14.0736 31.2184H14.0749M14.0736 31.2184H14.0749M14.0749 31.2184H14.0763M14.0749 31.2184H14.0763M14.0763 31.2184H14.0776M14.0763 31.2184H14.0776M14.0776 31.2184H14.079M14.0776 31.2184H14.079M14.079 31.2184H14.0803M14.079 31.2184H14.0803M14.0803 31.2184H14.0816M14.0803 31.2184H14.0816M14.0816 31.2184H14.083M14.0816 31.2184H14.083M14.083 31.2184H14.0843M14.083 31.2184H14.0843M14.0843 31.2184H14.0857M14.0843 31.2184H14.0857M14.0857 31.2184H14.087M14.0857 31.2184H14.087M14.087 31.2184H14.0884M14.087 31.2184H14.0884M14.0884 31.2184H14.0897M14.0884 31.2184H14.0897M14.0897 31.2184H14.0911M14.0897 31.2184H14.0911M14.0911 31.2184H14.0924M14.0911 31.2184H14.0924M14.0924 31.2184H14.0937M14.0924 31.2184H14.0937M14.0937 31.2184H14.0951M14.0937 31.2184H14.0951M14.0951 31.2184H14.0964M14.0951 31.2184H14.0964M14.0964 31.2184H14.0978M14.0964 31.2184H14.0978M14.0978 31.2184H14.0991M14.0978 31.2184H14.0991M14.0991 31.2184H14.1005M14.0991 31.2184H14.1005M14.1005 31.2184H14.1018M14.1005 31.2184H14.1018M14.1018 31.2184H14.1031M14.1018 31.2184H14.1031M14.1031 31.2184H14.1045M14.1031 31.2184H14.1045M14.1045 31.2184H14.1058M14.1045 31.2184H14.1058M14.1058 31.2184H14.1072M14.1058 31.2184H14.1072M14.1072 31.2184H14.1085M14.1072 31.2184H14.1085M14.1085 31.2184H14.1098M14.1085 31.2184H14.1098M14.1098 31.2184H14.1112M14.1098 31.2184H14.1112M14.1112 31.2184H14.1125M14.1112 31.2184H14.1125M14.1125 31.2184H14.1138M14.1125 31.2184H14.1138M14.1138 31.2184H14.1152M14.1138 31.2184H14.1152M14.1152 31.2184H14.1165M14.1152 31.2184H14.1165M14.1165 31.2184H14.1179M14.1165 31.2184H14.1179M14.1179 31.2184H14.1192M14.1179 31.2184H14.1192M14.1192 31.2184H14.1205M14.1192 31.2184H14.1205M14.1205 31.2184H14.1219M14.1205 31.2184H14.1219M14.1219 31.2184H14.1232M14.1219 31.2184H14.1232M14.1232 31.2184H14.1245M14.1232 31.2184H14.1245M14.1245 31.2184H14.1259M14.1245 31.2184H14.1259M14.1259 31.2184H14.1272M14.1259 31.2184H14.1272M14.1272 31.2184H14.1286M14.1272 31.2184H14.1286M14.1286 31.2184H14.1299M14.1286 31.2184H14.1299M14.1299 31.2184H14.1312M14.1299 31.2184H14.1312M14.1312 31.2184H14.1326M14.1312 31.2184H14.1326M14.1326 31.2184H14.1339M14.1326 31.2184H14.1339M14.1339 31.2184H14.1352M14.1339 31.2184H14.1352M14.1352 31.2184H14.1366M14.1352 31.2184H14.1366M14.1366 31.2184H14.1379M14.1366 31.2184H14.1379M14.1379 31.2184H14.1392M14.1379 31.2184H14.1392M14.1392 31.2184H14.1406M14.1392 31.2184H14.1406M14.1406 31.2184H14.1419M14.1406 31.2184H14.1419M14.1419 31.2184H14.1432M14.1419 31.2184H14.1432M14.1432 31.2184H14.1446M14.1432 31.2184H14.1446M14.1446 31.2184H14.1459M14.1446 31.2184H14.1459M14.1459 31.2184H14.1472M14.1459 31.2184H14.1472M14.1472 31.2184H14.1486M14.1472 31.2184H14.1486M14.1486 31.2184H14.1499M14.1486 31.2184H14.1499M14.1499 31.2184H14.1512M14.1499 31.2184H14.1512M14.1512 31.2184H14.1526M14.1512 31.2184H14.1526M14.1526 31.2184H14.1539M14.1526 31.2184H14.1539M14.1539 31.2184H14.1552M14.1539 31.2184H14.1552M14.1552 31.2184H14.1566M14.1552 31.2184H14.1566M14.1566 31.2184H14.1579M14.1566 31.2184H14.1579M14.1579 31.2184H14.1592M14.1579 31.2184H14.1592M14.1592 31.2184H14.1606M14.1592 31.2184H14.1606M14.1606 31.2184H14.1619M14.1606 31.2184H14.1619M14.1619 31.2184H14.1632M14.1619 31.2184H14.1632M14.1632 31.2184H14.1645M14.1632 31.2184H14.1645M14.1645 31.2184H14.1659M14.1645 31.2184H14.1659M14.1659 31.2184H14.1672M14.1659 31.2184H14.1672M14.1672 31.2184H14.1685M14.1672 31.2184H14.1685M14.1685 31.2184H14.1699M14.1685 31.2184H14.1699M14.1699 31.2184H14.1712M14.1699 31.2184H14.1712M14.1712 31.2184H14.1725M14.1712 31.2184H14.1725M14.1725 31.2184H14.1739M14.1725 31.2184H14.1739M14.1739 31.2184H14.1752M14.1739 31.2184H14.1752M14.1752 31.2184H14.1765M14.1752 31.2184H14.1765M14.1765 31.2184H14.1778M14.1765 31.2184H14.1778M14.1778 31.2184H14.1792M14.1778 31.2184H14.1792M14.1792 31.2184H14.1805M14.1792 31.2184H14.1805M14.1805 31.2184H14.1818M14.1805 31.2184H14.1818M14.1818 31.2184H14.1832M14.1818 31.2184H14.1832M14.1832 31.2184H14.1845M14.1832 31.2184H14.1845M14.1845 31.2184H14.1858M14.1845 31.2184H14.1858M14.1858 31.2184H14.1871M14.1858 31.2184H14.1871M14.1871 31.2184H14.1885M14.1871 31.2184H14.1885M14.1885 31.2184H14.1898M14.1885 31.2184H14.1898M14.1898 31.2184H14.1911M14.1898 31.2184H14.1911M14.1911 31.2184H14.1924M14.1911 31.2184H14.1924M14.1924 31.2184H14.1938M14.1924 31.2184H14.1938M14.1938 31.2184H14.1951M14.1938 31.2184H14.1951M14.1951 31.2184H14.1964M14.1951 31.2184H14.1964M14.1964 31.2184H14.1978M14.1964 31.2184H14.1978M14.1978 31.2184H14.1991M14.1978 31.2184H14.1991M14.1991 31.2184H14.2004M14.1991 31.2184H14.2004M14.2004 31.2184H14.2017M14.2004 31.2184H14.2017M14.2017 31.2184H14.2031M14.2017 31.2184H14.2031M14.2031 31.2184H14.2044M14.2031 31.2184H14.2044M14.2044 31.2184H14.2057M14.2044 31.2184H14.2057M14.2057 31.2184H14.207M14.2057 31.2184H14.207M14.207 31.2184H14.2084M14.207 31.2184H14.2084M14.2084 31.2184H14.2097M14.2084 31.2184H14.2097M14.2097 31.2184H14.211M14.2097 31.2184H14.211M14.211 31.2184H14.2123M14.211 31.2184H14.2123M14.2123 31.2184H14.2137M14.2123 31.2184H14.2137M14.2137 31.2184H14.215M14.2137 31.2184H14.215M14.215 31.2184H14.2163M14.215 31.2184H14.2163M14.2163 31.2184H14.2176M14.2163 31.2184H14.2176M14.2176 31.2184H14.219M14.2176 31.2184H14.219M14.219 31.2184H14.2203M14.219 31.2184H14.2203M14.2203 31.2184H14.2216M14.2203 31.2184H14.2216M14.2216 31.2184H14.2229M14.2216 31.2184H14.2229M14.2229 31.2184H14.2243M14.2229 31.2184H14.2243M14.2243 31.2184H14.2256M14.2243 31.2184H14.2256M14.2256 31.2184H14.2269M14.2256 31.2184H14.2269M14.2269 31.2184H14.2282M14.2269 31.2184H14.2282M14.2282 31.2184H14.2296M14.2282 31.2184H14.2296M14.2296 31.2184H14.2309M14.2296 31.2184H14.2309M14.2309 31.2184H14.2322M14.2309 31.2184H14.2322M14.2322 31.2184H14.2335M14.2322 31.2184H14.2335M14.2335 31.2184H14.2348M14.2335 31.2184H14.2348M14.2348 31.2184H14.2362M14.2348 31.2184H14.2362M14.2362 31.2184H14.2375M14.2362 31.2184H14.2375M14.2375 31.2184H14.2388M14.2375 31.2184H14.2388M14.2388 31.2184H14.2401M14.2388 31.2184H14.2401M14.2401 31.2184H14.2415M14.2401 31.2184H14.2415M14.2415 31.2184H14.2428M14.2415 31.2184H14.2428M14.2428 31.2184H14.2441M14.2428 31.2184H14.2441M14.2441 31.2184H14.2454M14.2441 31.2184H14.2454M14.2454 31.2184H14.2468M14.2454 31.2184H14.2468M14.2468 31.2184H14.2481M14.2468 31.2184H14.2481M14.2481 31.2184H14.2494M14.2481 31.2184H14.2494M14.2494 31.2184H14.2507M14.2494 31.2184H14.2507M14.2507 31.2184H14.252M14.2507 31.2184H14.252M14.252 31.2184H14.2534M14.252 31.2184H14.2534M14.2534 31.2184H14.2547M14.2534 31.2184H14.2547M14.2547 31.2184H14.256M14.2547 31.2184H14.256M14.256 31.2184H14.2573M14.256 31.2184H14.2573M14.2573 31.2184H14.2587M14.2573 31.2184H14.2587M14.2587 31.2184H14.26M14.2587 31.2184H14.26M14.26 31.2184H14.2613M14.26 31.2184H14.2613M14.2613 31.2184H14.2626M14.2613 31.2184H14.2626M14.2626 31.2184H14.2639M14.2626 31.2184H14.2639M14.2639 31.2184H14.2653M14.2639 31.2184H14.2653M14.2653 31.2184H14.2666M14.2653 31.2184H14.2666M14.2666 31.2184H14.2679M14.2666 31.2184H14.2679M14.2679 31.2184H14.2692M14.2679 31.2184H14.2692M14.2692 31.2184H14.2706M14.2692 31.2184H14.2706M14.2706 31.2184H14.2719M14.2706 31.2184H14.2719M14.2719 31.2184H14.2732M14.2719 31.2184H14.2732M14.2732 31.2184H14.2745M14.2732 31.2184H14.2745M14.2745 31.2184H14.2758M14.2745 31.2184H14.2758M14.2758 31.2184H14.2772M14.2758 31.2184H14.2772M14.2772 31.2184H14.2785M14.2772 31.2184H14.2785M14.2785 31.2184H14.2798M14.2785 31.2184H14.2798M14.2798 31.2184H14.2811M14.2798 31.2184H14.2811M14.2811 31.2184H14.2825M14.2811 31.2184H14.2825M14.2825 31.2184H14.2838M14.2825 31.2184H14.2838M14.2838 31.2184H14.2851M14.2838 31.2184H14.2851M14.2851 31.2184H14.2864M14.2851 31.2184H14.2864M14.2864 31.2184H14.2877M14.2864 31.2184H14.2877M14.2877 31.2184H14.2891M14.2877 31.2184H14.2891M14.2891 31.2184H14.2904M14.2891 31.2184H14.2904M14.2904 31.2184H14.2917M14.2904 31.2184H14.2917M14.2917 31.2184H14.293M14.2917 31.2184H14.293M14.293 31.2184H14.2943M14.293 31.2184H14.2943M14.2943 31.2184H14.2957M14.2943 31.2184H14.2957M14.2957 31.2184H14.297M14.2957 31.2184H14.297M14.297 31.2184H14.2983M14.297 31.2184H14.2983M14.2983 31.2184H14.2996M14.2983 31.2184H14.2996M14.2996 31.2184H14.301M14.2996 31.2184H14.301M14.301 31.2184H14.3023M14.301 31.2184H14.3023M14.3023 31.2184H14.3036M14.3023 31.2184H14.3036M14.3036 31.2184H14.3049M14.3036 31.2184H14.3049M14.3049 31.2184H14.3062M14.3049 31.2184H14.3062M14.3062 31.2184H14.3076M14.3062 31.2184H14.3076M14.3076 31.2184H14.3089M14.3076 31.2184H14.3089M14.3089 31.2184H14.3102M14.3089 31.2184H14.3102M14.3102 31.2184H14.3115M14.3102 31.2184H14.3115M14.3115 31.2184H14.3129M14.3115 31.2184H14.3129M14.3129 31.2184H14.3142M14.3129 31.2184H14.3142M14.3142 31.2184H14.3155M14.3142 31.2184H14.3155M14.3155 31.2184H14.3168M14.3155 31.2184H14.3168M14.3168 31.2184H14.3181M14.3168 31.2184H14.3181M14.3181 31.2184H14.3195M14.3181 31.2184H14.3195M14.3195 31.2184H14.3208M14.3195 31.2184H14.3208M14.3208 31.2184H14.3221M14.3208 31.2184H14.3221M14.3221 31.2184H14.3234M14.3221 31.2184H14.3234M14.3234 31.2184H14.3248M14.3234 31.2184H14.3248M14.3248 31.2184H14.3261M14.3248 31.2184H14.3261M14.3261 31.2184H14.3274M14.3261 31.2184H14.3274M14.3274 31.2184H14.3287M14.3274 31.2184H14.3287M14.3287 31.2184H14.33M14.3287 31.2184H14.33M14.33 31.2184H14.3314M14.33 31.2184H14.3314M14.3314 31.2184H14.3327M14.3314 31.2184H14.3327M14.3327 31.2184H14.334M14.3327 31.2184H14.334M14.334 31.2184H14.3353M14.334 31.2184H14.3353M14.3353 31.2184H14.3367M14.3353 31.2184H14.3367M14.3367 31.2184H14.338M14.3367 31.2184H14.338M14.338 31.2184H14.3393M14.338 31.2184H14.3393M14.3393 31.2184H14.3406M14.3393 31.2184H14.3406M14.3406 31.2184H14.342M14.3406 31.2184H14.342M14.342 31.2184H14.3433M14.342 31.2184H14.3433M14.3433 31.2184H14.3446M14.3433 31.2184H14.3446M14.3446 31.2184H14.3459M14.3446 31.2184H14.3459M14.3459 31.2184H14.3472M14.3459 31.2184H14.3472M14.3472 31.2184H14.3486M14.3472 31.2184H14.3486M14.3486 31.2184H14.3499M14.3486 31.2184H14.3499M14.3499 31.2184H14.3512M14.3499 31.2184H14.3512M14.3512 31.2184H14.3525M14.3512 31.2184H14.3525M14.3525 31.2184H14.3539M14.3525 31.2184H14.3539M14.3539 31.2184H14.3552M14.3539 31.2184H14.3552M14.3552 31.2184H14.3565M14.3552 31.2184H14.3565M14.3565 31.2184H14.3578M14.3565 31.2184H14.3578M14.3578 31.2184H14.3592M14.3578 31.2184H14.3592M14.3592 31.2184H14.3605M14.3592 31.2184H14.3605M14.3605 31.2184H14.3618M14.3605 31.2184H14.3618M14.3618 31.2184H14.3631M14.3618 31.2184H14.3631M14.3631 31.2184H14.3645M14.3631 31.2184H14.3645M14.3645 31.2184H14.3658M14.3645 31.2184H14.3658M14.3658 31.2184H14.3671M14.3658 31.2184H14.3671M14.3671 31.2184H14.3684M14.3671 31.2184H14.3684M14.3684 31.2184H14.3698M14.3684 31.2184H14.3698M14.3698 31.2184H14.3711M14.3698 31.2184H14.3711M14.3711 31.2184H14.3724M14.3711 31.2184H14.3724M14.3724 31.2184H14.3737M14.3724 31.2184H14.3737M14.3737 31.2184H14.3751M14.3737 31.2184H14.3751M14.3751 31.2184H14.3764M14.3751 31.2184H14.3764M14.3764 31.2184H14.3777M14.3764 31.2184H14.3777M14.3777 31.2184H14.379M14.3777 31.2184H14.379M14.379 31.2184H14.3804M14.379 31.2184H14.3804M14.3804 31.2184H14.3817M14.3804 31.2184H14.3817M14.3817 31.2184H14.383M14.3817 31.2184H14.383M14.383 31.2184H14.3844M14.383 31.2184H14.3844M14.3844 31.2184H14.3857M14.3844 31.2184H14.3857M14.3857 31.2184H14.387M14.3857 31.2184H14.387M14.387 31.2184H14.3883M14.387 31.2184H14.3883M14.3883 31.2184H14.3897M14.3883 31.2184H14.3897M14.3897 31.2184H14.391M14.3897 31.2184H14.391M14.391 31.2184H14.3923M14.391 31.2184H14.3923M14.3923 31.2184H14.3936M14.3923 31.2184H14.3936M14.3936 31.2184H14.395M14.3936 31.2184H14.395M14.395 31.2184H14.3963M14.395 31.2184H14.3963M14.3963 31.2184H14.3976M14.3963 31.2184H14.3976M14.3976 31.2184H14.399M14.3976 31.2184H14.399M14.399 31.2184H14.4003M14.399 31.2184H14.4003M14.4003 31.2184H14.4016M14.4003 31.2184H14.4016M14.4016 31.2184H14.4029M14.4016 31.2184H14.4029M14.4029 31.2184H14.4043M14.4029 31.2184H14.4043M14.4043 31.2184H14.4056M14.4043 31.2184H14.4056M14.4056 31.2184H14.4069M14.4056 31.2184H14.4069M14.4069 31.2184H14.4083M14.4069 31.2184H14.4083M14.4083 31.2184H14.4096M14.4083 31.2184H14.4096M14.4096 31.2184H14.4109M14.4096 31.2184H14.4109M14.4109 31.2184H14.4122M14.4109 31.2184H14.4122M14.4122 31.2184H14.4136M14.4122 31.2184H14.4136M14.4136 31.2184H14.4149M14.4136 31.2184H14.4149M14.4149 31.2184H14.4162M14.4149 31.2184H14.4162M14.4162 31.2184H14.4176M14.4162 31.2184H14.4176M14.4176 31.2184H14.4189M14.4176 31.2184H14.4189M14.4189 31.2184H14.4202M14.4189 31.2184H14.4202M14.4202 31.2184H14.4216H14.4202Z" fill="#131547" stroke="#131547" stroke-width="0.3"/>
<path d="M14.6162 33.2817L14.6113 33.3023C13.8883 33.3023 13.147 33.2836 12.441 33.2637V34.5273C12.441 34.9123 12.3527 35.2371 12.2497 35.5096C14.3165 35.6581 16.5043 35.8545 18.533 36.3146C20.8445 36.8331 22.9801 37.7009 24.5548 39.2314M14.6162 33.2817L24.4512 39.3399M14.6162 33.2817C14.6237 33.2818 14.6311 33.2819 14.6386 33.2821C16.5519 33.3139 18.441 33.3453 20.0931 33.7334C21.7603 34.1251 23.1697 34.8764 24.1088 36.3466C24.3454 36.7386 24.8698 36.8706 25.2648 36.6072L25.265 36.6074L25.2716 36.6024C25.2751 36.5998 25.2787 36.5972 25.2823 36.5945C25.3585 36.5375 25.4665 36.4567 25.5265 36.3427C26.4657 34.8857 27.8741 34.1354 29.5397 33.7442C31.2123 33.3512 33.1283 33.3239 35.0653 33.3023L14.6162 33.2817ZM24.5548 39.2314C24.5551 39.2317 24.5554 39.232 24.5557 39.2323L24.4512 39.3399M24.5548 39.2314C24.5546 39.2312 24.5543 39.2309 24.554 39.2306L24.4512 39.3399M24.5548 39.2314C24.5657 39.2416 24.5762 39.2516 24.5865 39.2613C24.6657 39.336 24.7304 39.397 24.7926 39.445C24.862 39.4986 24.9148 39.5248 24.9616 39.5334C25.0436 39.5484 25.1768 39.5192 25.4404 39.2556M24.4512 39.3399C24.4621 39.3502 24.473 39.3604 24.4836 39.3705C24.8283 39.6958 25.0259 39.8823 25.5469 39.3613M25.4404 39.2556C25.4403 39.2558 25.4402 39.2559 25.4401 39.256L25.5469 39.3613M25.4404 39.2556C27.014 37.6604 29.0631 36.7698 31.2711 36.2718M25.4404 39.2556C25.4406 39.2555 25.4407 39.2554 25.4408 39.2553L25.5469 39.3613M25.5469 39.3613L31.2711 36.2718M31.2711 36.2718C31.2713 36.2717 31.2715 36.2717 31.2717 36.2717L31.3047 36.418L31.2705 36.2719C31.2707 36.2719 31.2709 36.2718 31.2711 36.2718ZM10.766 32.4434V32.5055L10.7875 32.527V34.5273C10.7875 34.6418 10.7563 34.7678 10.708 34.9002C10.6681 35.0094 10.6198 35.1146 10.573 35.2164C10.5633 35.2375 10.5537 35.2584 10.5443 35.2791C10.5423 35.2831 10.5403 35.2871 10.5383 35.291C10.4148 35.5379 10.2934 35.7808 10.2934 36.0742C10.2934 36.3866 10.3689 36.6641 10.5959 36.8572C10.8157 37.0442 11.1481 37.1259 11.5983 37.1266C13.7684 37.277 16.0749 37.4485 18.1868 37.9391L18.1875 37.9393C20.2495 38.4069 22.1025 39.1672 23.4269 40.4193C23.4748 40.5057 23.5525 40.5774 23.6384 40.6361C23.7357 40.7026 23.8556 40.7607 23.9881 40.8098C24.2533 40.9082 24.5848 40.9765 24.9248 40.9988C25.2645 41.0211 25.6211 40.998 25.935 40.9073C26.2427 40.8184 26.5233 40.66 26.6958 40.4008C27.9984 39.0615 29.7459 38.3216 31.7029 37.8748C33.6834 37.4324 35.8953 37.2807 38.0625 37.132L38.1419 37.1266C38.5824 37.1259 38.9137 37.0438 39.1354 36.8579C39.3644 36.6659 39.4469 36.3895 39.4469 36.0742C39.4469 35.7808 39.3254 35.5379 39.2019 35.291L39.1959 35.2791C39.182 35.2485 39.1678 35.2179 39.1537 35.1875C39.052 34.9686 38.9527 34.7547 38.9527 34.5273V32.3789V32.3788V32.3787V32.3785V32.3784V32.3783V32.3782V32.378V32.3779V32.3778V32.3777V32.3776V32.3774V32.3773V32.3772V32.3771V32.377V32.3768V32.3767V32.3766V32.3765V32.3764V32.3763V32.3761V32.376V32.3759V32.3758V32.3757V32.3756V32.3755V32.3753V32.3752V32.3751V32.375V32.3749V32.3748V32.3747V32.3746V32.3745V32.3744V32.3742V32.3741V32.374V32.3739V32.3738V32.3737V32.3736V32.3735V32.3734V32.3733V32.3732V32.3731V32.373V32.3729V32.3728V32.3727V32.3726V32.3725V32.3724V32.3723V32.3722V32.3721V32.372V32.3719V32.3718V32.3717V32.3716V32.3715V32.3714V32.3713V32.3712V32.3711V32.371V32.3709V32.3708V32.3707V32.3706V32.3705V32.3704V32.3703V32.3702V32.3702V32.3701V32.37V32.3699V32.3698V32.3697V32.3696V32.3695V32.3694V32.3693V32.3692V32.3692V32.3691V32.369V32.3689V32.3688V32.3687V32.3686V32.3685V32.3685V32.3684V32.3683V32.3682V32.3681V32.368V32.3679V32.3679V32.3678V32.3677V32.3676V32.3675V32.3674V32.3674V32.3673V32.3672V32.3671V32.367V32.3669V32.3669V32.3668V32.3667V32.3666V32.3665V32.3665V32.3664V32.3663V32.3662V32.3661V32.3661V32.366V32.3659V32.3658V32.3658V32.3657V32.3656V32.3655V32.3655V32.3654V32.3653V32.3652V32.3651V32.3651V32.365V32.3649V32.3648V32.3648V32.3647V32.3646V32.3645V32.3645V32.3644V32.3643V32.3643V32.3642V32.3641V32.364V32.364V32.3639V32.3638V32.3637V32.3637V32.3636V32.3635V32.3635V32.3634V32.3633V32.3632V32.3632V32.3631V32.363V32.363V32.3629V32.3628V32.3628V32.3627V32.3626V32.3626V32.3625V32.3624V32.3623V32.3623V32.3622V32.3621V32.3621V32.362V32.3619V32.3619V32.3618V32.3617V32.3617V32.3616V32.3615V32.3615V32.3614V32.3613V32.3613V32.3612V32.3611V32.3611V32.361V32.3609V32.3609V32.3608V32.3607V32.3607V32.3606V32.3605V32.3605V32.3604V32.3603V32.3603V32.3602V32.3602V32.3601V32.36V32.36V32.3599V32.3598V32.3598V32.3597V32.3596V32.3596V32.3595V32.3594V32.3594V32.3593V32.3593V32.3592V32.3591V32.3591V32.359V32.3589V32.3589V32.3588V32.3587V32.3587V32.3586V32.3586V32.3585V32.3584V32.3584V32.3583V32.3582V32.3582V32.3581V32.3581V32.358V32.3579V32.3579V32.3578V32.3577V32.3577V32.3576V32.3575V32.3575V32.3574V32.3574V32.3573V32.3572V32.3572V32.3571V32.357V32.357V32.3569V32.3569V32.3568V32.3567V32.3567V32.3566V32.3565V32.3565V32.3564V32.3564V32.3563V32.3562V32.3562V32.3561V32.356V32.356V32.3559V32.3558V32.3558V32.3557V32.3557V32.3556V32.3555V32.3555V32.3554V32.3553V32.3553V32.3552V32.3551V32.3551V32.355V32.3549V32.3549V32.3548V32.3548V32.3547V32.3546V32.3546V32.3545V32.3544V32.3544V32.3543V32.3542V32.3542V32.3541V32.354V32.354V32.3539V32.3538V32.3538V32.3537V32.3536V32.3536V32.3535V32.3534V32.3534V32.3533V32.3532V32.3532V32.3531V32.353V32.353V32.3529V32.3528V32.3528V32.3527V32.3526V32.3526V32.3525V32.3524V32.3524V32.3523V32.3522V32.3522V32.3521V32.352V32.3519V32.3519V32.3518V32.3517V32.3517V32.3516V32.3515V32.3515V32.3514V32.3513V32.3512V32.3512V32.3511V32.351V32.351V32.3509V32.3508V32.3507V32.3507V32.3506V32.3505V32.3504V32.3504V32.3503V32.3502V32.3501V32.3501V32.35V32.3499V32.3498V32.3498V32.3497V32.3496V32.3495V32.3495V32.3494V32.3493V32.3492V32.3492V32.3491V32.349V32.3489V32.3489V32.3488V32.3487V32.3486V32.3485V32.3485V32.3484V32.3483V32.3482V32.3481V32.3481V32.348V32.3479V32.3478V32.3477V32.3476V32.3476V32.3475V32.3474V32.3473V32.3472V32.3472V32.3471V32.347V32.3469V32.3468V32.3467V32.3466V32.3466V32.3465V32.3464V32.3463V32.3462V32.3461V32.346V32.346V32.3459V32.3458V32.3457V32.3456V32.3455V32.3454V32.3453V32.3452V32.3451V32.3451V32.345V32.3449V32.3448V32.3447V32.3446V32.3445V32.3444V32.3443V32.3442V32.3441V32.344V32.3439V32.3438V32.3438V32.3437V32.3436V32.3435V32.3434V32.3433V32.3432V32.3431V32.343V32.3429V32.3428V32.3427V32.3426V32.3425V32.3424V32.3423V32.3422V32.3421V32.342V32.3419V32.3418V32.3417V32.3416V32.3414V32.3413V32.3412V32.3411V32.341V32.3409V32.3408V32.3407V32.3406V32.3405V32.3404V32.3403V32.3402V32.3401V32.3399V32.3398V32.3397V32.3396V32.3395V32.3394V32.3393V32.3392V32.339V32.3389V32.3388V32.3387V32.3386V32.3385V32.3384V32.3382V32.3381V32.338V32.3379V32.3378V32.3377V32.3375V32.3374V32.3373V32.3372V32.3371V32.3369V32.3368V32.3367V32.3366V32.3364V32.3363V32.3362V32.3361V32.3359H38.953L38.9525 32.3276C38.9263 31.8555 38.5306 31.5157 38.0639 31.5416L38.0627 31.5417C37.3103 31.5897 36.5711 31.6018 35.8308 31.6138C35.5818 31.6179 35.3326 31.6219 35.0827 31.6274L35.0763 31.6274C33.1273 31.6489 31.1648 31.6704 29.3855 32.0496C27.654 32.4185 26.085 33.1281 24.8594 34.5127C23.6437 33.1384 22.0748 32.4291 20.3415 32.0577C18.5571 31.6753 16.5865 31.6488 14.6345 31.6274V31.6273H14.6328C13.6251 31.6273 12.6403 31.6059 11.6562 31.5417L11.6562 31.5417L11.6548 31.5416C11.1881 31.5157 10.7925 31.8555 10.7662 32.3276L10.766 32.3276V32.3359V32.3361V32.3362V32.3363V32.3364V32.3366V32.3367V32.3368V32.337V32.3371V32.3372V32.3374V32.3375V32.3376V32.3377V32.3379V32.338V32.3381V32.3383V32.3384V32.3386V32.3387V32.3388V32.339V32.3391V32.3392V32.3394V32.3395V32.3397V32.3398V32.3399V32.3401V32.3402V32.3404V32.3405V32.3406V32.3408V32.3409V32.3411V32.3412V32.3414V32.3415V32.3416V32.3418V32.3419V32.3421V32.3422V32.3424V32.3425V32.3427V32.3428V32.343V32.3431V32.3433V32.3434V32.3436V32.3437V32.3439V32.344V32.3442V32.3443V32.3445V32.3446V32.3448V32.345V32.3451V32.3453V32.3454V32.3456V32.3457V32.3459V32.3461V32.3462V32.3464V32.3465V32.3467V32.3469V32.347V32.3472V32.3473V32.3475V32.3477V32.3478V32.348V32.3482V32.3483V32.3485V32.3486V32.3488V32.349V32.3491V32.3493V32.3495V32.3496V32.3498V32.35V32.3501V32.3503V32.3505V32.3507V32.3508V32.351V32.3512V32.3513V32.3515V32.3517V32.3519V32.352V32.3522V32.3524V32.3525V32.3527V32.3529V32.3531V32.3532V32.3534V32.3536V32.3538V32.354V32.3541V32.3543V32.3545V32.3547V32.3548V32.355V32.3552V32.3554V32.3556V32.3557V32.3559V32.3561V32.3563V32.3565V32.3567V32.3568V32.357V32.3572V32.3574V32.3576V32.3578V32.3579V32.3581V32.3583V32.3585V32.3587V32.3589V32.3591V32.3592V32.3594V32.3596V32.3598V32.36V32.3602V32.3604V32.3606V32.3608V32.361V32.3611V32.3613V32.3615V32.3617V32.3619V32.3621V32.3623V32.3625V32.3627V32.3629V32.3631V32.3633V32.3635V32.3637V32.3639V32.364V32.3642V32.3644V32.3646V32.3648V32.365V32.3652V32.3654V32.3656V32.3658V32.366V32.3662V32.3664V32.3666V32.3668V32.367V32.3672V32.3674V32.3676V32.3678V32.368V32.3682V32.3684V32.3686V32.3689V32.3691V32.3693V32.3695V32.3697V32.3699V32.3701V32.3703V32.3705V32.3707V32.3709V32.3711V32.3713V32.3715V32.3717V32.3719V32.3722V32.3724V32.3726V32.3728V32.373V32.3732V32.3734V32.3736V32.3738V32.374V32.3742V32.3745V32.3747V32.3749V32.3751V32.3753V32.3755V32.3757V32.3759V32.3762V32.3764V32.3766V32.3768V32.377V32.3772V32.3775V32.3777V32.3779V32.3781V32.3783V32.3785V32.3787V32.379V32.3792V32.3794V32.3796V32.3798V32.3801V32.3803V32.3805V32.3807V32.3809V32.3812V32.3814V32.3816V32.3818V32.382V32.3823V32.3825V32.3827V32.3829V32.3831V32.3834V32.3836V32.3838V32.384V32.3843V32.3845V32.3847V32.3849V32.3851V32.3854V32.3856V32.3858V32.386V32.3863V32.3865V32.3867V32.3869V32.3872V32.3874V32.3876V32.3879V32.3881V32.3883V32.3885V32.3888V32.389V32.3892V32.3894V32.3897V32.3899V32.3901V32.3904V32.3906V32.3908V32.391V32.3913V32.3915V32.3917V32.392V32.3922V32.3924V32.3927V32.3929V32.3931V32.3934V32.3936V32.3938V32.3941V32.3943V32.3945V32.3948V32.395V32.3952V32.3955V32.3957V32.3959V32.3962V32.3964V32.3966V32.3969V32.3971V32.3973V32.3976V32.3978V32.398V32.3983V32.3985V32.3987V32.399V32.3992V32.3994V32.3997V32.3999V32.4002V32.4004V32.4006V32.4009V32.4011V32.4013V32.4016V32.4018V32.4021V32.4023V32.4025V32.4028V32.403V32.4033V32.4035V32.4037V32.404V32.4042V32.4045V32.4047V32.4049V32.4052V32.4054V32.4057V32.4059V32.4061V32.4064V32.4066V32.4069V32.4071V32.4073V32.4076V32.4078V32.4081V32.4083V32.4086V32.4088V32.409V32.4093V32.4095V32.4098V32.41V32.4103V32.4105V32.4107V32.411V32.4112V32.4115V32.4117V32.412V32.4122V32.4124V32.4127V32.4129V32.4132V32.4134V32.4137V32.4139V32.4142V32.4144V32.4146V32.4149V32.4151V32.4154V32.4156V32.4159V32.4161V32.4164V32.4166V32.4169V32.4171V32.4174V32.4176V32.4178V32.4181V32.4183V32.4186V32.4188V32.4191V32.4193V32.4196V32.4198V32.4201V32.4203V32.4206V32.4208V32.4211V32.4213V32.4216V32.4218V32.4221V32.4223V32.4226V32.4228V32.4231V32.4233V32.4235V32.4238V32.424V32.4243V32.4245V32.4248V32.425V32.4253V32.4255V32.4258V32.426V32.4263V32.4265V32.4268V32.427V32.4273V32.4275V32.4278V32.428V32.4283V32.4285V32.4288V32.429V32.4293V32.4295V32.4298V32.43V32.4303V32.4305V32.4308V32.431V32.4313V32.4315V32.4318V32.432V32.4323V32.4325V32.4328V32.433V32.4333V32.4335V32.4338V32.4341V32.4343V32.4346V32.4348V32.4351V32.4353V32.4356V32.4358V32.4361V32.4363V32.4366V32.4368V32.4371V32.4373V32.4376V32.4378V32.4381V32.4383V32.4386V32.4388V32.4391V32.4393V32.4396V32.4398V32.4401V32.4403V32.4406V32.4408V32.4411V32.4413V32.4416V32.4418V32.4421V32.4424V32.4426V32.4429V32.4431V32.4434ZM37.6136 35.6466L37.6426 35.6445C37.6224 35.5974 37.6022 35.5487 37.5825 35.4984C37.5304 35.502 37.4782 35.5057 37.426 35.5093C37.4451 35.5599 37.4647 35.6086 37.4844 35.6556C37.5275 35.6526 37.5705 35.6496 37.6136 35.6466ZM37.3848 33.2594V33.1094C37.3349 33.1108 37.2849 33.1122 37.2348 33.1136V33.2637C37.2849 33.2623 37.3349 33.2609 37.3848 33.2594ZM12.0332 35.6445C12.0858 35.6483 12.1386 35.652 12.1913 35.6558L12.0933 35.4984C12.0736 35.5488 12.0534 35.5974 12.0332 35.6445Z" fill="#131547" stroke="#131547" stroke-width="0.3"/>
<defs>
<linearGradient id="paint0_linear" x1="-1.15232" y1="48.4547" x2="28.9242" y2="47.4247" gradientUnits="userSpaceOnUse">
<stop stop-color="#D0AC6E"/>
<stop offset="0.463542" stop-color="#FEE5A5"/>
<stop offset="1" stop-color="#E2C383"/>
</linearGradient>
</defs>
</svg>
