<svg width="48" height="49" viewBox="0 0 48 49" fill="none" xmlns="http://www.w3.org/2000/svg">
<circle cx="24" cy="24.4547" r="24" fill="url(#paint0_linear)"/>
<path fill-rule="evenodd" clip-rule="evenodd" d="M35.7682 12.1713C35.8709 12.1842 35.9678 12.2017 36.0658 12.2367C36.3878 12.3545 36.6456 12.6123 36.7634 12.9343C36.8101 13.065 36.8276 13.1957 36.8334 13.3333V32C36.8276 32.1377 36.8101 32.2683 36.7634 32.399C36.6456 32.721 36.3878 32.9788 36.0658 33.0967C35.9351 33.1433 35.8044 33.1608 35.6667 33.1667H26.6869L19.9809 37.6373L19.8946 37.6898C19.7418 37.7657 19.5866 37.8182 19.4151 37.831C18.9367 37.8637 18.4748 37.5907 18.2741 37.1543C18.2018 36.998 18.1737 36.837 18.1667 36.6667V33.1667H12.3334L12.2319 33.162C12.0954 33.1445 11.9659 33.1165 11.8399 33.057C11.5308 32.9123 11.2951 32.6323 11.2064 32.3022C11.1796 32.2018 11.1714 32.1027 11.1667 32V13.3333C11.1726 13.1957 11.1901 13.065 11.2367 12.9343C11.3546 12.6123 11.6124 12.3545 11.9344 12.2367C12.0651 12.19 12.1957 12.1725 12.3334 12.1667C20.1454 12.1667 28.0356 12.1702 35.7682 12.1713ZM13.5001 14.5V30.8333H19.3334C19.4711 30.8392 19.6018 30.8567 19.7324 30.9033C20.0544 31.0212 20.3123 31.279 20.4301 31.601C20.4768 31.7317 20.4942 31.8623 20.5001 32V34.4862L25.6859 31.0293L25.7699 30.978C25.8586 30.9337 25.9461 30.8952 26.0429 30.8707C26.1386 30.845 26.2342 30.838 26.3334 30.8333H34.5001V14.5H13.5001ZM27.4896 17.9627C27.4861 17.566 27.4861 17.1693 27.5012 16.7738C27.5082 16.663 27.5281 16.5545 27.5654 16.4495C27.6669 16.1555 27.8897 15.9093 28.1721 15.7763C28.2911 15.7215 28.4171 15.6877 28.5466 15.6725C28.5968 15.6678 28.6469 15.6667 28.6971 15.6667C28.8277 15.6725 28.9561 15.6958 29.0786 15.7413C29.3994 15.8627 29.6561 16.1263 29.7681 16.4495C29.8089 16.5638 29.8287 16.6828 29.8334 16.803C29.8381 17.1903 29.8451 17.5765 29.8462 17.9627C30.6384 17.9697 31.4306 17.9825 32.2227 18.0012C32.3931 18.014 32.5564 18.0537 32.7092 18.1342C32.8422 18.203 32.9612 18.2998 33.0581 18.4142C33.1432 18.5145 33.2109 18.63 33.2576 18.7525C33.2972 18.8587 33.3217 18.9695 33.3299 19.0827C33.3626 19.5202 33.1374 19.9495 32.7583 20.1723C32.5938 20.2692 32.4129 20.3182 32.2227 20.3322L32.1166 20.3345C32.1014 20.5083 32.0839 20.681 32.0618 20.8537C32.0373 21.0578 32.0069 21.2608 31.9719 21.4627C31.7432 22.8078 31.3034 24.1238 30.6664 25.3325C31.0082 25.5402 31.3629 25.7303 31.7246 25.8983C31.9066 25.9823 32.0909 26.0617 32.2776 26.1328C32.3826 26.1737 32.4899 26.2098 32.5961 26.2483C32.6439 26.2682 32.6439 26.2682 32.6906 26.2903C32.8749 26.3883 33.0324 26.5237 33.1467 26.6998C33.2121 26.8013 33.2611 26.9122 33.2926 27.0288C33.3929 27.3975 33.3019 27.8023 33.0522 28.0928C32.9741 28.1838 32.8808 28.2632 32.7781 28.3262C32.5436 28.472 32.2589 28.5292 31.9859 28.486C31.8389 28.4627 31.6989 28.4078 31.5601 28.3565C30.9943 28.1477 30.4471 27.8887 29.9197 27.5947C29.7389 27.4943 29.5604 27.3893 29.3831 27.2808C29.0144 27.7358 28.6096 28.1628 28.1709 28.5548C27.7964 28.8897 27.3974 29.193 26.9797 29.4718C26.9237 29.5068 26.9237 29.5057 26.8666 29.5372C26.7079 29.6142 26.5411 29.662 26.3637 29.6667C26.2109 29.6702 26.0581 29.6433 25.9146 29.5885C25.7932 29.5418 25.6789 29.4742 25.5786 29.3902C25.2052 29.0728 25.0687 28.5397 25.2449 28.0812C25.3242 27.8735 25.4607 27.7043 25.6334 27.5667C25.7582 27.4792 25.8842 27.3963 26.0079 27.3077C26.2891 27.0988 26.5586 26.876 26.8118 26.6333C27.0568 26.4012 27.2854 26.155 27.5012 25.896C26.9132 25.3838 26.3707 24.8168 25.9111 24.1892C25.7302 23.943 25.5634 23.6887 25.4152 23.4227C25.3242 23.2605 25.2333 23.0983 25.1936 22.9163C25.1119 22.5418 25.2227 22.1428 25.4864 21.864C25.5693 21.7765 25.6661 21.703 25.7711 21.6447C25.9239 21.5607 26.0896 21.5163 26.2634 21.5023C26.3148 21.5 26.3147 21.5 26.3661 21.5C26.4524 21.5047 26.5376 21.5152 26.6216 21.5362C26.9109 21.6097 27.1513 21.7917 27.3158 22.0378C27.3788 22.1417 27.4324 22.2502 27.4931 22.3552C27.8384 22.9327 28.2841 23.4425 28.7752 23.901C29.1334 23.1567 29.4017 22.368 29.5767 21.563C29.6619 21.1698 29.7261 20.7708 29.7692 20.3707C28.2164 20.3823 26.6624 20.3695 25.1108 20.3322C24.9206 20.3182 24.7397 20.2692 24.5752 20.1723C24.1961 19.9495 23.9709 19.5202 24.0036 19.0827C24.0117 18.9695 24.0363 18.8587 24.0759 18.7525C24.1226 18.63 24.1902 18.5145 24.2754 18.4142C24.3722 18.2998 24.4913 18.203 24.6243 18.1342C24.7771 18.0537 24.9404 18.014 25.1108 18.0012C25.9029 17.9825 26.6962 17.9697 27.4896 17.9627ZM19.3031 18.0012C19.3276 18.0012 19.3533 18 19.3778 18.0012C19.3836 18.0012 19.3894 18.0012 19.3941 18.0023C19.3999 18.0023 19.4058 18.0023 19.4104 18.0023C19.5131 18.0117 19.6122 18.0292 19.7091 18.0618C19.7429 18.0735 19.7756 18.0863 19.8082 18.1015C19.8222 18.1073 19.8351 18.1132 19.8479 18.1202C19.8899 18.14 19.9296 18.1633 19.9681 18.1878C20.0754 18.2578 20.1711 18.3442 20.2504 18.4457C20.3006 18.5098 20.3426 18.5787 20.3799 18.6522C21.6259 21.3612 22.7307 24.1332 23.9056 26.8737C23.9814 27.065 24.0164 27.2657 23.9919 27.471C23.9429 27.8817 23.6722 28.2433 23.2931 28.4055C23.1811 28.4533 23.0609 28.4837 22.9396 28.4953C22.7973 28.5082 22.6526 28.4942 22.5161 28.4557C22.3784 28.4172 22.2489 28.353 22.1346 28.2678C21.9852 28.1558 21.8732 28.0123 21.7869 27.8478C21.5314 27.2937 21.2817 26.736 21.0367 26.1772C19.8934 26.1935 18.7501 26.1935 17.6056 26.1772C17.3711 26.715 17.1366 27.2528 16.9056 27.793C16.8192 27.9797 16.6979 28.143 16.5322 28.2678C16.4342 28.3402 16.3246 28.3985 16.2091 28.4382C15.8182 28.5712 15.3761 28.4837 15.0646 28.2107C14.9573 28.1173 14.8674 28.0042 14.8009 27.877C14.7344 27.751 14.6924 27.6133 14.6749 27.471C14.6528 27.2867 14.6796 27.1058 14.7391 26.9308C15.8416 24.16 17.0864 21.4475 18.2612 18.707C18.2951 18.6323 18.3324 18.5612 18.3802 18.4947C18.4537 18.3897 18.5448 18.2975 18.6486 18.2228C18.6848 18.196 18.7244 18.1703 18.7641 18.1482C18.7769 18.1412 18.7897 18.1342 18.8037 18.1272C18.8352 18.1108 18.8667 18.0968 18.9006 18.084C18.9951 18.0455 19.0943 18.0233 19.1958 18.0082C19.2004 18.0082 19.2063 18.007 19.2121 18.007C19.2168 18.0058 19.2226 18.0058 19.2272 18.0047C19.2529 18.0035 19.2774 18.0023 19.3031 18.0012ZM19.3428 22.1907C19.1118 22.732 18.8772 23.2722 18.6416 23.8123C19.1024 23.81 19.5633 23.81 20.0241 23.8123C19.7966 23.2722 19.5703 22.7308 19.3428 22.1907Z" fill="#131547"/>
<defs>
<linearGradient id="paint0_linear" x1="-1.15232" y1="48.4547" x2="28.9242" y2="47.4247" gradientUnits="userSpaceOnUse">
<stop stop-color="#D0AC6E"/>
<stop offset="0.463542" stop-color="#FEE5A5"/>
<stop offset="1" stop-color="#E2C383"/>
</linearGradient>
</defs>
</svg>
